#
# Wavefront object file
# CHAI3D
# http://www.chai3d.org
#


mtllib base.mat
# object base
g base

# mesh-0: vertices
v 0.90000 0.00000 0.00000
v 0.90000 0.00000 0.40000
v 0.88633 0.15628 0.00000
v 0.88633 0.15628 0.40000
v 0.84572 0.30782 0.00000
v 0.84572 0.30782 0.40000
v 0.77942 0.45000 0.00000
v 0.77942 0.45000 0.40000
v 0.68944 0.57851 0.00000
v 0.68944 0.57851 0.40000
v 0.57851 0.68944 0.00000
v 0.57851 0.68944 0.40000
v 0.45000 0.77942 0.00000
v 0.45000 0.77942 0.40000
v 0.30782 0.84572 0.00000
v 0.30782 0.84572 0.40000
v 0.15628 0.88633 0.00000
v 0.15628 0.88633 0.40000
v 0.00000 0.90000 0.00000
v 0.00000 0.90000 0.40000
v -0.15628 0.88633 0.00000
v -0.15628 0.88633 0.40000
v -0.30782 0.84572 0.00000
v -0.30782 0.84572 0.40000
v -0.45000 0.77942 0.00000
v -0.45000 0.77942 0.40000
v -0.57851 0.68944 0.00000
v -0.57851 0.68944 0.40000
v -0.68944 0.57851 0.00000
v -0.68944 0.57851 0.40000
v -0.77942 0.45000 0.00000
v -0.77942 0.45000 0.40000
v -0.84572 0.30782 0.00000
v -0.84572 0.30782 0.40000
v -0.88633 0.15628 0.00000
v -0.88633 0.15628 0.40000
v -0.90000 0.00000 0.00000
v -0.90000 0.00000 0.40000
v -0.88633 -0.15628 0.00000
v -0.88633 -0.15628 0.40000
v -0.84572 -0.30782 0.00000
v -0.84572 -0.30782 0.40000
v -0.77942 -0.45000 0.00000
v -0.77942 -0.45000 0.40000
v -0.68944 -0.57851 0.00000
v -0.68944 -0.57851 0.40000
v -0.57851 -0.68944 0.00000
v -0.57851 -0.68944 0.40000
v -0.45000 -0.77942 0.00000
v -0.45000 -0.77942 0.40000
v -0.30782 -0.84572 0.00000
v -0.30782 -0.84572 0.40000
v -0.15628 -0.88633 0.00000
v -0.15628 -0.88633 0.40000
v -0.00000 -0.90000 0.00000
v -0.00000 -0.90000 0.40000
v 0.15628 -0.88633 0.00000
v 0.15628 -0.88633 0.40000
v 0.30782 -0.84572 0.00000
v 0.30782 -0.84572 0.40000
v 0.45000 -0.77942 0.00000
v 0.45000 -0.77942 0.40000
v 0.57851 -0.68944 0.00000
v 0.57851 -0.68944 0.40000
v 0.68944 -0.57851 0.00000
v 0.68944 -0.57851 0.40000
v 0.77942 -0.45000 0.00000
v 0.77942 -0.45000 0.40000
v 0.84572 -0.30782 0.00000
v 0.84572 -0.30782 0.40000
v 0.88633 -0.15628 0.00000
v 0.88633 -0.15628 0.40000
v 0.90000 -0.00000 0.00000
v 0.90000 -0.00000 0.40000
v 0.00000 0.00000 0.00000
v 0.90000 0.00000 0.00000
v 0.88633 -0.15628 0.00000
v 0.84572 -0.30782 0.00000
v 0.77942 -0.45000 0.00000
v 0.68944 -0.57851 0.00000
v 0.57851 -0.68944 0.00000
v 0.45000 -0.77942 0.00000
v 0.30782 -0.84572 0.00000
v 0.15628 -0.88633 0.00000
v 0.00000 -0.90000 0.00000
v -0.15628 -0.88633 0.00000
v -0.30782 -0.84572 0.00000
v -0.45000 -0.77942 0.00000
v -0.57851 -0.68944 0.00000
v -0.68944 -0.57851 0.00000
v -0.77942 -0.45000 0.00000
v -0.84572 -0.30782 0.00000
v -0.88633 -0.15628 0.00000
v -0.90000 -0.00000 0.00000
v -0.88633 0.15628 0.00000
v -0.84572 0.30782 0.00000
v -0.77942 0.45000 0.00000
v -0.68944 0.57851 0.00000
v -0.57851 0.68944 0.00000
v -0.45000 0.77942 0.00000
v -0.30782 0.84572 0.00000
v -0.15628 0.88633 0.00000
v -0.00000 0.90000 0.00000
v 0.15628 0.88633 0.00000
v 0.30782 0.84572 0.00000
v 0.45000 0.77942 0.00000
v 0.57851 0.68944 0.00000
v 0.68944 0.57851 0.00000
v 0.77942 0.45000 0.00000
v 0.84572 0.30782 0.00000
v 0.88633 0.15628 0.00000
v 0.00000 0.00000 0.40000
v 0.90000 0.00000 0.40000
v 0.88633 0.15628 0.40000
v 0.84572 0.30782 0.40000
v 0.77942 0.45000 0.40000
v 0.68944 0.57851 0.40000
v 0.57851 0.68944 0.40000
v 0.45000 0.77942 0.40000
v 0.30782 0.84572 0.40000
v 0.15628 0.88633 0.40000
v 0.00000 0.90000 0.40000
v -0.15628 0.88633 0.40000
v -0.30782 0.84572 0.40000
v -0.45000 0.77942 0.40000
v -0.57851 0.68944 0.40000
v -0.68944 0.57851 0.40000
v -0.77942 0.45000 0.40000
v -0.84572 0.30782 0.40000
v -0.88633 0.15628 0.40000
v -0.90000 0.00000 0.40000
v -0.88633 -0.15628 0.40000
v -0.84572 -0.30782 0.40000
v -0.77942 -0.45000 0.40000
v -0.68944 -0.57851 0.40000
v -0.57851 -0.68944 0.40000
v -0.45000 -0.77942 0.40000
v -0.30782 -0.84572 0.40000
v -0.15628 -0.88633 0.40000
v -0.00000 -0.90000 0.40000
v 0.15628 -0.88633 0.40000
v 0.30782 -0.84572 0.40000
v 0.45000 -0.77942 0.40000
v 0.57851 -0.68944 0.40000
v 0.68944 -0.57851 0.40000
v 0.77942 -0.45000 0.40000
v 0.84572 -0.30782 0.40000
v 0.88633 -0.15628 0.40000

# mesh-0: normals
vn 1.00000 0.00000 0.00000
vn 1.00000 0.00000 0.00000
vn 0.98481 0.17365 0.00000
vn 0.98481 0.17365 0.00000
vn 0.93969 0.34202 0.00000
vn 0.93969 0.34202 0.00000
vn 0.86603 0.50000 0.00000
vn 0.86603 0.50000 0.00000
vn 0.76604 0.64279 0.00000
vn 0.76604 0.64279 0.00000
vn 0.64279 0.76604 0.00000
vn 0.64279 0.76604 0.00000
vn 0.50000 0.86603 0.00000
vn 0.50000 0.86603 0.00000
vn 0.34202 0.93969 0.00000
vn 0.34202 0.93969 0.00000
vn 0.17365 0.98481 0.00000
vn 0.17365 0.98481 0.00000
vn 0.00000 1.00000 0.00000
vn 0.00000 1.00000 0.00000
vn -0.17365 0.98481 0.00000
vn -0.17365 0.98481 0.00000
vn -0.34202 0.93969 0.00000
vn -0.34202 0.93969 0.00000
vn -0.50000 0.86603 0.00000
vn -0.50000 0.86603 0.00000
vn -0.64279 0.76604 0.00000
vn -0.64279 0.76604 0.00000
vn -0.76604 0.64279 0.00000
vn -0.76604 0.64279 0.00000
vn -0.86603 0.50000 0.00000
vn -0.86603 0.50000 0.00000
vn -0.93969 0.34202 0.00000
vn -0.93969 0.34202 0.00000
vn -0.98481 0.17365 0.00000
vn -0.98481 0.17365 0.00000
vn -1.00000 0.00000 0.00000
vn -1.00000 0.00000 0.00000
vn -0.98481 -0.17365 0.00000
vn -0.98481 -0.17365 0.00000
vn -0.93969 -0.34202 0.00000
vn -0.93969 -0.34202 0.00000
vn -0.86603 -0.50000 0.00000
vn -0.86603 -0.50000 0.00000
vn -0.76604 -0.64279 0.00000
vn -0.76604 -0.64279 0.00000
vn -0.64279 -0.76604 0.00000
vn -0.64279 -0.76604 0.00000
vn -0.50000 -0.86603 0.00000
vn -0.50000 -0.86603 0.00000
vn -0.34202 -0.93969 0.00000
vn -0.34202 -0.93969 0.00000
vn -0.17365 -0.98481 0.00000
vn -0.17365 -0.98481 0.00000
vn -0.00000 -1.00000 0.00000
vn -0.00000 -1.00000 0.00000
vn 0.17365 -0.98481 0.00000
vn 0.17365 -0.98481 0.00000
vn 0.34202 -0.93969 0.00000
vn 0.34202 -0.93969 0.00000
vn 0.50000 -0.86603 0.00000
vn 0.50000 -0.86603 0.00000
vn 0.64279 -0.76604 0.00000
vn 0.64279 -0.76604 0.00000
vn 0.76604 -0.64279 0.00000
vn 0.76604 -0.64279 0.00000
vn 0.86603 -0.50000 0.00000
vn 0.86603 -0.50000 0.00000
vn 0.93969 -0.34202 0.00000
vn 0.93969 -0.34202 0.00000
vn 0.98481 -0.17365 0.00000
vn 0.98481 -0.17365 0.00000
vn 1.00000 -0.00000 0.00000
vn 1.00000 -0.00000 0.00000
vn 0.00000 0.00000 -1.00000
vn 0.00000 0.00000 -1.00000
vn 0.00000 0.00000 -1.00000
vn 0.00000 0.00000 -1.00000
vn 0.00000 0.00000 -1.00000
vn 0.00000 0.00000 -1.00000
vn 0.00000 0.00000 -1.00000
vn 0.00000 0.00000 -1.00000
vn 0.00000 0.00000 -1.00000
vn 0.00000 0.00000 -1.00000
vn 0.00000 0.00000 -1.00000
vn 0.00000 0.00000 -1.00000
vn 0.00000 0.00000 -1.00000
vn 0.00000 0.00000 -1.00000
vn 0.00000 0.00000 -1.00000
vn 0.00000 0.00000 -1.00000
vn 0.00000 0.00000 -1.00000
vn 0.00000 0.00000 -1.00000
vn 0.00000 0.00000 -1.00000
vn 0.00000 0.00000 -1.00000
vn 0.00000 0.00000 -1.00000
vn 0.00000 0.00000 -1.00000
vn 0.00000 0.00000 -1.00000
vn 0.00000 0.00000 -1.00000
vn 0.00000 0.00000 -1.00000
vn 0.00000 0.00000 -1.00000
vn 0.00000 0.00000 -1.00000
vn 0.00000 0.00000 -1.00000
vn 0.00000 0.00000 -1.00000
vn 0.00000 0.00000 -1.00000
vn 0.00000 0.00000 -1.00000
vn 0.00000 0.00000 -1.00000
vn 0.00000 0.00000 -1.00000
vn 0.00000 0.00000 -1.00000
vn 0.00000 0.00000 -1.00000
vn 0.00000 0.00000 -1.00000
vn 0.00000 0.00000 -1.00000
vn 0.00000 0.00000 1.00000
vn 0.00000 0.00000 1.00000
vn 0.00000 0.00000 1.00000
vn 0.00000 0.00000 1.00000
vn 0.00000 0.00000 1.00000
vn 0.00000 0.00000 1.00000
vn 0.00000 0.00000 1.00000
vn 0.00000 0.00000 1.00000
vn 0.00000 0.00000 1.00000
vn 0.00000 0.00000 1.00000
vn 0.00000 0.00000 1.00000
vn 0.00000 0.00000 1.00000
vn 0.00000 0.00000 1.00000
vn 0.00000 0.00000 1.00000
vn 0.00000 0.00000 1.00000
vn 0.00000 0.00000 1.00000
vn 0.00000 0.00000 1.00000
vn 0.00000 0.00000 1.00000
vn 0.00000 0.00000 1.00000
vn 0.00000 0.00000 1.00000
vn 0.00000 0.00000 1.00000
vn 0.00000 0.00000 1.00000
vn 0.00000 0.00000 1.00000
vn 0.00000 0.00000 1.00000
vn 0.00000 0.00000 1.00000
vn 0.00000 0.00000 1.00000
vn 0.00000 0.00000 1.00000
vn 0.00000 0.00000 1.00000
vn 0.00000 0.00000 1.00000
vn 0.00000 0.00000 1.00000
vn 0.00000 0.00000 1.00000
vn 0.00000 0.00000 1.00000
vn 0.00000 0.00000 1.00000
vn 0.00000 0.00000 1.00000
vn 0.00000 0.00000 1.00000
vn 0.00000 0.00000 1.00000
vn 0.00000 0.00000 1.00000

# mesh-0: faces
usemtl MATERIAL0
f 1/1/1 3/3/3 4/4/4
f 1/1/1 4/4/4 2/2/2
f 3/3/3 5/5/5 6/6/6
f 3/3/3 6/6/6 4/4/4
f 5/5/5 7/7/7 8/8/8
f 5/5/5 8/8/8 6/6/6
f 7/7/7 9/9/9 10/10/10
f 7/7/7 10/10/10 8/8/8
f 9/9/9 11/11/11 12/12/12
f 9/9/9 12/12/12 10/10/10
f 11/11/11 13/13/13 14/14/14
f 11/11/11 14/14/14 12/12/12
f 13/13/13 15/15/15 16/16/16
f 13/13/13 16/16/16 14/14/14
f 15/15/15 17/17/17 18/18/18
f 15/15/15 18/18/18 16/16/16
f 17/17/17 19/19/19 20/20/20
f 17/17/17 20/20/20 18/18/18
f 19/19/19 21/21/21 22/22/22
f 19/19/19 22/22/22 20/20/20
f 21/21/21 23/23/23 24/24/24
f 21/21/21 24/24/24 22/22/22
f 23/23/23 25/25/25 26/26/26
f 23/23/23 26/26/26 24/24/24
f 25/25/25 27/27/27 28/28/28
f 25/25/25 28/28/28 26/26/26
f 27/27/27 29/29/29 30/30/30
f 27/27/27 30/30/30 28/28/28
f 29/29/29 31/31/31 32/32/32
f 29/29/29 32/32/32 30/30/30
f 31/31/31 33/33/33 34/34/34
f 31/31/31 34/34/34 32/32/32
f 33/33/33 35/35/35 36/36/36
f 33/33/33 36/36/36 34/34/34
f 35/35/35 37/37/37 38/38/38
f 35/35/35 38/38/38 36/36/36
f 37/37/37 39/39/39 40/40/40
f 37/37/37 40/40/40 38/38/38
f 39/39/39 41/41/41 42/42/42
f 39/39/39 42/42/42 40/40/40
f 41/41/41 43/43/43 44/44/44
f 41/41/41 44/44/44 42/42/42
f 43/43/43 45/45/45 46/46/46
f 43/43/43 46/46/46 44/44/44
f 45/45/45 47/47/47 48/48/48
f 45/45/45 48/48/48 46/46/46
f 47/47/47 49/49/49 50/50/50
f 47/47/47 50/50/50 48/48/48
f 49/49/49 51/51/51 52/52/52
f 49/49/49 52/52/52 50/50/50
f 51/51/51 53/53/53 54/54/54
f 51/51/51 54/54/54 52/52/52
f 53/53/53 55/55/55 56/56/56
f 53/53/53 56/56/56 54/54/54
f 55/55/55 57/57/57 58/58/58
f 55/55/55 58/58/58 56/56/56
f 57/57/57 59/59/59 60/60/60
f 57/57/57 60/60/60 58/58/58
f 59/59/59 61/61/61 62/62/62
f 59/59/59 62/62/62 60/60/60
f 61/61/61 63/63/63 64/64/64
f 61/61/61 64/64/64 62/62/62
f 63/63/63 65/65/65 66/66/66
f 63/63/63 66/66/66 64/64/64
f 65/65/65 67/67/67 68/68/68
f 65/65/65 68/68/68 66/66/66
f 67/67/67 69/69/69 70/70/70
f 67/67/67 70/70/70 68/68/68
f 69/69/69 71/71/71 72/72/72
f 69/69/69 72/72/72 70/70/70
f 71/71/71 73/73/73 74/74/74
f 71/71/71 74/74/74 72/72/72
f 75/75/75 76/76/76 77/77/77
f 75/75/75 77/77/77 78/78/78
f 75/75/75 78/78/78 79/79/79
f 75/75/75 79/79/79 80/80/80
f 75/75/75 80/80/80 81/81/81
f 75/75/75 81/81/81 82/82/82
f 75/75/75 82/82/82 83/83/83
f 75/75/75 83/83/83 84/84/84
f 75/75/75 84/84/84 85/85/85
f 75/75/75 85/85/85 86/86/86
f 75/75/75 86/86/86 87/87/87
f 75/75/75 87/87/87 88/88/88
f 75/75/75 88/88/88 89/89/89
f 75/75/75 89/89/89 90/90/90
f 75/75/75 90/90/90 91/91/91
f 75/75/75 91/91/91 92/92/92
f 75/75/75 92/92/92 93/93/93
f 75/75/75 93/93/93 94/94/94
f 75/75/75 94/94/94 95/95/95
f 75/75/75 95/95/95 96/96/96
f 75/75/75 96/96/96 97/97/97
f 75/75/75 97/97/97 98/98/98
f 75/75/75 98/98/98 99/99/99
f 75/75/75 99/99/99 100/100/100
f 75/75/75 100/100/100 101/101/101
f 75/75/75 101/101/101 102/102/102
f 75/75/75 102/102/102 103/103/103
f 75/75/75 103/103/103 104/104/104
f 75/75/75 104/104/104 105/105/105
f 75/75/75 105/105/105 106/106/106
f 75/75/75 106/106/106 107/107/107
f 75/75/75 107/107/107 108/108/108
f 75/75/75 108/108/108 109/109/109
f 75/75/75 109/109/109 110/110/110
f 75/75/75 110/110/110 111/111/111
f 75/75/75 111/111/111 76/76/76
f 112/112/112 113/113/113 114/114/114
f 112/112/112 114/114/114 115/115/115
f 112/112/112 115/115/115 116/116/116
f 112/112/112 116/116/116 117/117/117
f 112/112/112 117/117/117 118/118/118
f 112/112/112 118/118/118 119/119/119
f 112/112/112 119/119/119 120/120/120
f 112/112/112 120/120/120 121/121/121
f 112/112/112 121/121/121 122/122/122
f 112/112/112 122/122/122 123/123/123
f 112/112/112 123/123/123 124/124/124
f 112/112/112 124/124/124 125/125/125
f 112/112/112 125/125/125 126/126/126
f 112/112/112 126/126/126 127/127/127
f 112/112/112 127/127/127 128/128/128
f 112/112/112 128/128/128 129/129/129
f 112/112/112 129/129/129 130/130/130
f 112/112/112 130/130/130 131/131/131
f 112/112/112 131/131/131 132/132/132
f 112/112/112 132/132/132 133/133/133
f 112/112/112 133/133/133 134/134/134
f 112/112/112 134/134/134 135/135/135
f 112/112/112 135/135/135 136/136/136
f 112/112/112 136/136/136 137/137/137
f 112/112/112 137/137/137 138/138/138
f 112/112/112 138/138/138 139/139/139
f 112/112/112 139/139/139 140/140/140
f 112/112/112 140/140/140 141/141/141
f 112/112/112 141/141/141 142/142/142
f 112/112/112 142/142/142 143/143/143
f 112/112/112 143/143/143 144/144/144
f 112/112/112 144/144/144 145/145/145
f 112/112/112 145/145/145 146/146/146
f 112/112/112 146/146/146 147/147/147
f 112/112/112 147/147/147 148/148/148
f 112/112/112 148/148/148 113/113/113

# mesh-1: vertices
v 1.10000 0.00000 0.40000
v 1.10000 0.00000 0.55000
v 1.08329 0.19101 0.40000
v 1.08329 0.19101 0.55000
v 1.03366 0.37622 0.40000
v 1.03366 0.37622 0.55000
v 0.95263 0.55000 0.40000
v 0.95263 0.55000 0.55000
v 0.84265 0.70707 0.40000
v 0.84265 0.70707 0.55000
v 0.70707 0.84265 0.40000
v 0.70707 0.84265 0.55000
v 0.55000 0.95263 0.40000
v 0.55000 0.95263 0.55000
v 0.37622 1.03366 0.40000
v 0.37622 1.03366 0.55000
v 0.19101 1.08329 0.40000
v 0.19101 1.08329 0.55000
v 0.00000 1.10000 0.40000
v 0.00000 1.10000 0.55000
v -0.19101 1.08329 0.40000
v -0.19101 1.08329 0.55000
v -0.37622 1.03366 0.40000
v -0.37622 1.03366 0.55000
v -0.55000 0.95263 0.40000
v -0.55000 0.95263 0.55000
v -0.70707 0.84265 0.40000
v -0.70707 0.84265 0.55000
v -0.84265 0.70707 0.40000
v -0.84265 0.70707 0.55000
v -0.95263 0.55000 0.40000
v -0.95263 0.55000 0.55000
v -1.03366 0.37622 0.40000
v -1.03366 0.37622 0.55000
v -1.08329 0.19101 0.40000
v -1.08329 0.19101 0.55000
v -1.10000 0.00000 0.40000
v -1.10000 0.00000 0.55000
v -1.08329 -0.19101 0.40000
v -1.08329 -0.19101 0.55000
v -1.03366 -0.37622 0.40000
v -1.03366 -0.37622 0.55000
v -0.95263 -0.55000 0.40000
v -0.95263 -0.55000 0.55000
v -0.84265 -0.70707 0.40000
v -0.84265 -0.70707 0.55000
v -0.70707 -0.84265 0.40000
v -0.70707 -0.84265 0.55000
v -0.55000 -0.95263 0.40000
v -0.55000 -0.95263 0.55000
v -0.37622 -1.03366 0.40000
v -0.37622 -1.03366 0.55000
v -0.19101 -1.08329 0.40000
v -0.19101 -1.08329 0.55000
v -0.00000 -1.10000 0.40000
v -0.00000 -1.10000 0.55000
v 0.19101 -1.08329 0.40000
v 0.19101 -1.08329 0.55000
v 0.37622 -1.03366 0.40000
v 0.37622 -1.03366 0.55000
v 0.55000 -0.95263 0.40000
v 0.55000 -0.95263 0.55000
v 0.70707 -0.84265 0.40000
v 0.70707 -0.84265 0.55000
v 0.84265 -0.70707 0.40000
v 0.84265 -0.70707 0.55000
v 0.95263 -0.55000 0.40000
v 0.95263 -0.55000 0.55000
v 1.03366 -0.37622 0.40000
v 1.03366 -0.37622 0.55000
v 1.08329 -0.19101 0.40000
v 1.08329 -0.19101 0.55000
v 1.10000 -0.00000 0.40000
v 1.10000 -0.00000 0.55000
v 0.00000 0.00000 0.40000
v 1.10000 0.00000 0.40000
v 1.08329 -0.19101 0.40000
v 1.03366 -0.37622 0.40000
v 0.95263 -0.55000 0.40000
v 0.84265 -0.70707 0.40000
v 0.70707 -0.84265 0.40000
v 0.55000 -0.95263 0.40000
v 0.37622 -1.03366 0.40000
v 0.19101 -1.08329 0.40000
v 0.00000 -1.10000 0.40000
v -0.19101 -1.08329 0.40000
v -0.37622 -1.03366 0.40000
v -0.55000 -0.95263 0.40000
v -0.70707 -0.84265 0.40000
v -0.84265 -0.70707 0.40000
v -0.95263 -0.55000 0.40000
v -1.03366 -0.37622 0.40000
v -1.08329 -0.19101 0.40000
v -1.10000 -0.00000 0.40000
v -1.08329 0.19101 0.40000
v -1.03366 0.37622 0.40000
v -0.95263 0.55000 0.40000
v -0.84265 0.70707 0.40000
v -0.70707 0.84265 0.40000
v -0.55000 0.95263 0.40000
v -0.37622 1.03366 0.40000
v -0.19101 1.08329 0.40000
v -0.00000 1.10000 0.40000
v 0.19101 1.08329 0.40000
v 0.37622 1.03366 0.40000
v 0.55000 0.95263 0.40000
v 0.70707 0.84265 0.40000
v 0.84265 0.70707 0.40000
v 0.95263 0.55000 0.40000
v 1.03366 0.37622 0.40000
v 1.08329 0.19101 0.40000
v 0.00000 0.00000 0.55000
v 1.10000 0.00000 0.55000
v 1.08329 0.19101 0.55000
v 1.03366 0.37622 0.55000
v 0.95263 0.55000 0.55000
v 0.84265 0.70707 0.55000
v 0.70707 0.84265 0.55000
v 0.55000 0.95263 0.55000
v 0.37622 1.03366 0.55000
v 0.19101 1.08329 0.55000
v 0.00000 1.10000 0.55000
v -0.19101 1.08329 0.55000
v -0.37622 1.03366 0.55000
v -0.55000 0.95263 0.55000
v -0.70707 0.84265 0.55000
v -0.84265 0.70707 0.55000
v -0.95263 0.55000 0.55000
v -1.03366 0.37622 0.55000
v -1.08329 0.19101 0.55000
v -1.10000 0.00000 0.55000
v -1.08329 -0.19101 0.55000
v -1.03366 -0.37622 0.55000
v -0.95263 -0.55000 0.55000
v -0.84265 -0.70707 0.55000
v -0.70707 -0.84265 0.55000
v -0.55000 -0.95263 0.55000
v -0.37622 -1.03366 0.55000
v -0.19101 -1.08329 0.55000
v -0.00000 -1.10000 0.55000
v 0.19101 -1.08329 0.55000
v 0.37622 -1.03366 0.55000
v 0.55000 -0.95263 0.55000
v 0.70707 -0.84265 0.55000
v 0.84265 -0.70707 0.55000
v 0.95263 -0.55000 0.55000
v 1.03366 -0.37622 0.55000
v 1.08329 -0.19101 0.55000

# mesh-1: normals
vn 1.00000 0.00000 0.00000
vn 1.00000 0.00000 0.00000
vn 0.98481 0.17365 0.00000
vn 0.98481 0.17365 0.00000
vn 0.93969 0.34202 0.00000
vn 0.93969 0.34202 0.00000
vn 0.86603 0.50000 0.00000
vn 0.86603 0.50000 0.00000
vn 0.76604 0.64279 0.00000
vn 0.76604 0.64279 0.00000
vn 0.64279 0.76604 0.00000
vn 0.64279 0.76604 0.00000
vn 0.50000 0.86603 0.00000
vn 0.50000 0.86603 0.00000
vn 0.34202 0.93969 0.00000
vn 0.34202 0.93969 0.00000
vn 0.17365 0.98481 0.00000
vn 0.17365 0.98481 0.00000
vn 0.00000 1.00000 0.00000
vn 0.00000 1.00000 0.00000
vn -0.17365 0.98481 0.00000
vn -0.17365 0.98481 0.00000
vn -0.34202 0.93969 0.00000
vn -0.34202 0.93969 0.00000
vn -0.50000 0.86603 0.00000
vn -0.50000 0.86603 0.00000
vn -0.64279 0.76604 0.00000
vn -0.64279 0.76604 0.00000
vn -0.76604 0.64279 0.00000
vn -0.76604 0.64279 0.00000
vn -0.86603 0.50000 0.00000
vn -0.86603 0.50000 0.00000
vn -0.93969 0.34202 0.00000
vn -0.93969 0.34202 0.00000
vn -0.98481 0.17365 0.00000
vn -0.98481 0.17365 0.00000
vn -1.00000 0.00000 0.00000
vn -1.00000 0.00000 0.00000
vn -0.98481 -0.17365 0.00000
vn -0.98481 -0.17365 0.00000
vn -0.93969 -0.34202 0.00000
vn -0.93969 -0.34202 0.00000
vn -0.86603 -0.50000 0.00000
vn -0.86603 -0.50000 0.00000
vn -0.76604 -0.64279 0.00000
vn -0.76604 -0.64279 0.00000
vn -0.64279 -0.76604 0.00000
vn -0.64279 -0.76604 0.00000
vn -0.50000 -0.86603 0.00000
vn -0.50000 -0.86603 0.00000
vn -0.34202 -0.93969 0.00000
vn -0.34202 -0.93969 0.00000
vn -0.17365 -0.98481 0.00000
vn -0.17365 -0.98481 0.00000
vn -0.00000 -1.00000 0.00000
vn -0.00000 -1.00000 0.00000
vn 0.17365 -0.98481 0.00000
vn 0.17365 -0.98481 0.00000
vn 0.34202 -0.93969 0.00000
vn 0.34202 -0.93969 0.00000
vn 0.50000 -0.86603 0.00000
vn 0.50000 -0.86603 0.00000
vn 0.64279 -0.76604 0.00000
vn 0.64279 -0.76604 0.00000
vn 0.76604 -0.64279 0.00000
vn 0.76604 -0.64279 0.00000
vn 0.86603 -0.50000 0.00000
vn 0.86603 -0.50000 0.00000
vn 0.93969 -0.34202 0.00000
vn 0.93969 -0.34202 0.00000
vn 0.98481 -0.17365 0.00000
vn 0.98481 -0.17365 0.00000
vn 1.00000 -0.00000 0.00000
vn 1.00000 -0.00000 0.00000
vn 0.00000 0.00000 -1.00000
vn 0.00000 0.00000 -1.00000
vn 0.00000 0.00000 -1.00000
vn 0.00000 0.00000 -1.00000
vn 0.00000 0.00000 -1.00000
vn 0.00000 0.00000 -1.00000
vn 0.00000 0.00000 -1.00000
vn 0.00000 0.00000 -1.00000
vn 0.00000 0.00000 -1.00000
vn 0.00000 0.00000 -1.00000
vn 0.00000 0.00000 -1.00000
vn 0.00000 0.00000 -1.00000
vn 0.00000 0.00000 -1.00000
vn 0.00000 0.00000 -1.00000
vn 0.00000 0.00000 -1.00000
vn 0.00000 0.00000 -1.00000
vn 0.00000 0.00000 -1.00000
vn 0.00000 0.00000 -1.00000
vn 0.00000 0.00000 -1.00000
vn 0.00000 0.00000 -1.00000
vn 0.00000 0.00000 -1.00000
vn 0.00000 0.00000 -1.00000
vn 0.00000 0.00000 -1.00000
vn 0.00000 0.00000 -1.00000
vn 0.00000 0.00000 -1.00000
vn 0.00000 0.00000 -1.00000
vn 0.00000 0.00000 -1.00000
vn 0.00000 0.00000 -1.00000
vn 0.00000 0.00000 -1.00000
vn 0.00000 0.00000 -1.00000
vn 0.00000 0.00000 -1.00000
vn 0.00000 0.00000 -1.00000
vn 0.00000 0.00000 -1.00000
vn 0.00000 0.00000 -1.00000
vn 0.00000 0.00000 -1.00000
vn 0.00000 0.00000 -1.00000
vn 0.00000 0.00000 -1.00000
vn 0.00000 0.00000 1.00000
vn 0.00000 0.00000 1.00000
vn 0.00000 0.00000 1.00000
vn 0.00000 0.00000 1.00000
vn 0.00000 0.00000 1.00000
vn 0.00000 0.00000 1.00000
vn 0.00000 0.00000 1.00000
vn 0.00000 0.00000 1.00000
vn 0.00000 0.00000 1.00000
vn 0.00000 0.00000 1.00000
vn 0.00000 0.00000 1.00000
vn 0.00000 0.00000 1.00000
vn 0.00000 0.00000 1.00000
vn 0.00000 0.00000 1.00000
vn 0.00000 0.00000 1.00000
vn 0.00000 0.00000 1.00000
vn 0.00000 0.00000 1.00000
vn 0.00000 0.00000 1.00000
vn 0.00000 0.00000 1.00000
vn 0.00000 0.00000 1.00000
vn 0.00000 0.00000 1.00000
vn 0.00000 0.00000 1.00000
vn 0.00000 0.00000 1.00000
vn 0.00000 0.00000 1.00000
vn 0.00000 0.00000 1.00000
vn 0.00000 0.00000 1.00000
vn 0.00000 0.00000 1.00000
vn 0.00000 0.00000 1.00000
vn 0.00000 0.00000 1.00000
vn 0.00000 0.00000 1.00000
vn 0.00000 0.00000 1.00000
vn 0.00000 0.00000 1.00000
vn 0.00000 0.00000 1.00000
vn 0.00000 0.00000 1.00000
vn 0.00000 0.00000 1.00000
vn 0.00000 0.00000 1.00000
vn 0.00000 0.00000 1.00000

# mesh-1: faces
usemtl MATERIAL1
f 149/149/149 151/151/151 152/152/152
f 149/149/149 152/152/152 150/150/150
f 151/151/151 153/153/153 154/154/154
f 151/151/151 154/154/154 152/152/152
f 153/153/153 155/155/155 156/156/156
f 153/153/153 156/156/156 154/154/154
f 155/155/155 157/157/157 158/158/158
f 155/155/155 158/158/158 156/156/156
f 157/157/157 159/159/159 160/160/160
f 157/157/157 160/160/160 158/158/158
f 159/159/159 161/161/161 162/162/162
f 159/159/159 162/162/162 160/160/160
f 161/161/161 163/163/163 164/164/164
f 161/161/161 164/164/164 162/162/162
f 163/163/163 165/165/165 166/166/166
f 163/163/163 166/166/166 164/164/164
f 165/165/165 167/167/167 168/168/168
f 165/165/165 168/168/168 166/166/166
f 167/167/167 169/169/169 170/170/170
f 167/167/167 170/170/170 168/168/168
f 169/169/169 171/171/171 172/172/172
f 169/169/169 172/172/172 170/170/170
f 171/171/171 173/173/173 174/174/174
f 171/171/171 174/174/174 172/172/172
f 173/173/173 175/175/175 176/176/176
f 173/173/173 176/176/176 174/174/174
f 175/175/175 177/177/177 178/178/178
f 175/175/175 178/178/178 176/176/176
f 177/177/177 179/179/179 180/180/180
f 177/177/177 180/180/180 178/178/178
f 179/179/179 181/181/181 182/182/182
f 179/179/179 182/182/182 180/180/180
f 181/181/181 183/183/183 184/184/184
f 181/181/181 184/184/184 182/182/182
f 183/183/183 185/185/185 186/186/186
f 183/183/183 186/186/186 184/184/184
f 185/185/185 187/187/187 188/188/188
f 185/185/185 188/188/188 186/186/186
f 187/187/187 189/189/189 190/190/190
f 187/187/187 190/190/190 188/188/188
f 189/189/189 191/191/191 192/192/192
f 189/189/189 192/192/192 190/190/190
f 191/191/191 193/193/193 194/194/194
f 191/191/191 194/194/194 192/192/192
f 193/193/193 195/195/195 196/196/196
f 193/193/193 196/196/196 194/194/194
f 195/195/195 197/197/197 198/198/198
f 195/195/195 198/198/198 196/196/196
f 197/197/197 199/199/199 200/200/200
f 197/197/197 200/200/200 198/198/198
f 199/199/199 201/201/201 202/202/202
f 199/199/199 202/202/202 200/200/200
f 201/201/201 203/203/203 204/204/204
f 201/201/201 204/204/204 202/202/202
f 203/203/203 205/205/205 206/206/206
f 203/203/203 206/206/206 204/204/204
f 205/205/205 207/207/207 208/208/208
f 205/205/205 208/208/208 206/206/206
f 207/207/207 209/209/209 210/210/210
f 207/207/207 210/210/210 208/208/208
f 209/209/209 211/211/211 212/212/212
f 209/209/209 212/212/212 210/210/210
f 211/211/211 213/213/213 214/214/214
f 211/211/211 214/214/214 212/212/212
f 213/213/213 215/215/215 216/216/216
f 213/213/213 216/216/216 214/214/214
f 215/215/215 217/217/217 218/218/218
f 215/215/215 218/218/218 216/216/216
f 217/217/217 219/219/219 220/220/220
f 217/217/217 220/220/220 218/218/218
f 219/219/219 221/221/221 222/222/222
f 219/219/219 222/222/222 220/220/220
f 223/223/223 224/224/224 225/225/225
f 223/223/223 225/225/225 226/226/226
f 223/223/223 226/226/226 227/227/227
f 223/223/223 227/227/227 228/228/228
f 223/223/223 228/228/228 229/229/229
f 223/223/223 229/229/229 230/230/230
f 223/223/223 230/230/230 231/231/231
f 223/223/223 231/231/231 232/232/232
f 223/223/223 232/232/232 233/233/233
f 223/223/223 233/233/233 234/234/234
f 223/223/223 234/234/234 235/235/235
f 223/223/223 235/235/235 236/236/236
f 223/223/223 236/236/236 237/237/237
f 223/223/223 237/237/237 238/238/238
f 223/223/223 238/238/238 239/239/239
f 223/223/223 239/239/239 240/240/240
f 223/223/223 240/240/240 241/241/241
f 223/223/223 241/241/241 242/242/242
f 223/223/223 242/242/242 243/243/243
f 223/223/223 243/243/243 244/244/244
f 223/223/223 244/244/244 245/245/245
f 223/223/223 245/245/245 246/246/246
f 223/223/223 246/246/246 247/247/247
f 223/223/223 247/247/247 248/248/248
f 223/223/223 248/248/248 249/249/249
f 223/223/223 249/249/249 250/250/250
f 223/223/223 250/250/250 251/251/251
f 223/223/223 251/251/251 252/252/252
f 223/223/223 252/252/252 253/253/253
f 223/223/223 253/253/253 254/254/254
f 223/223/223 254/254/254 255/255/255
f 223/223/223 255/255/255 256/256/256
f 223/223/223 256/256/256 257/257/257
f 223/223/223 257/257/257 258/258/258
f 223/223/223 258/258/258 259/259/259
f 223/223/223 259/259/259 224/224/224
f 260/260/260 261/261/261 262/262/262
f 260/260/260 262/262/262 263/263/263
f 260/260/260 263/263/263 264/264/264
f 260/260/260 264/264/264 265/265/265
f 260/260/260 265/265/265 266/266/266
f 260/260/260 266/266/266 267/267/267
f 260/260/260 267/267/267 268/268/268
f 260/260/260 268/268/268 269/269/269
f 260/260/260 269/269/269 270/270/270
f 260/260/260 270/270/270 271/271/271
f 260/260/260 271/271/271 272/272/272
f 260/260/260 272/272/272 273/273/273
f 260/260/260 273/273/273 274/274/274
f 260/260/260 274/274/274 275/275/275
f 260/260/260 275/275/275 276/276/276
f 260/260/260 276/276/276 277/277/277
f 260/260/260 277/277/277 278/278/278
f 260/260/260 278/278/278 279/279/279
f 260/260/260 279/279/279 280/280/280
f 260/260/260 280/280/280 281/281/281
f 260/260/260 281/281/281 282/282/282
f 260/260/260 282/282/282 283/283/283
f 260/260/260 283/283/283 284/284/284
f 260/260/260 284/284/284 285/285/285
f 260/260/260 285/285/285 286/286/286
f 260/260/260 286/286/286 287/287/287
f 260/260/260 287/287/287 288/288/288
f 260/260/260 288/288/288 289/289/289
f 260/260/260 289/289/289 290/290/290
f 260/260/260 290/290/290 291/291/291
f 260/260/260 291/291/291 292/292/292
f 260/260/260 292/292/292 293/293/293
f 260/260/260 293/293/293 294/294/294
f 260/260/260 294/294/294 295/295/295
f 260/260/260 295/295/295 296/296/296
f 260/260/260 296/296/296 261/261/261

# mesh-2: vertices
v -0.50000 0.50000 0.80000
v -0.50000 0.50000 0.30000
v -0.50000 -0.50000 0.30000
v -0.50000 0.50000 0.80000
v -0.50000 -0.50000 0.30000
v -0.50000 -0.50000 0.80000
v 0.50000 -0.50000 0.80000
v 0.50000 -0.50000 0.30000
v 0.50000 0.50000 0.30000
v 0.50000 -0.50000 0.80000
v 0.50000 0.50000 0.30000
v 0.50000 0.50000 0.80000
v 0.50000 -0.50000 0.80000
v -0.50000 -0.50000 0.80000
v -0.50000 -0.50000 0.30000
v 0.50000 -0.50000 0.80000
v -0.50000 -0.50000 0.30000
v 0.50000 -0.50000 0.30000
v 0.50000 0.50000 0.80000
v 0.50000 0.50000 0.30000
v -0.50000 0.50000 0.30000
v 0.50000 0.50000 0.80000
v -0.50000 0.50000 0.30000
v -0.50000 0.50000 0.80000
v -0.50000 -0.50000 0.30000
v -0.50000 0.50000 0.30000
v 0.50000 0.50000 0.30000
v -0.50000 -0.50000 0.30000
v 0.50000 0.50000 0.30000
v 0.50000 -0.50000 0.30000
v -0.50000 -0.50000 0.80000
v 0.50000 -0.50000 0.80000
v 0.50000 0.50000 0.80000
v -0.50000 -0.50000 0.80000
v 0.50000 0.50000 0.80000
v -0.50000 0.50000 0.80000

# mesh-2: normals
vn -1.00000 0.00000 0.00000
vn -1.00000 0.00000 0.00000
vn -1.00000 0.00000 0.00000
vn -1.00000 0.00000 0.00000
vn -1.00000 0.00000 0.00000
vn -1.00000 0.00000 0.00000
vn 1.00000 0.00000 0.00000
vn 1.00000 0.00000 0.00000
vn 1.00000 0.00000 0.00000
vn 1.00000 0.00000 0.00000
vn 1.00000 0.00000 0.00000
vn 1.00000 0.00000 0.00000
vn 0.00000 -1.00000 0.00000
vn 0.00000 -1.00000 0.00000
vn 0.00000 -1.00000 0.00000
vn 0.00000 -1.00000 0.00000
vn 0.00000 -1.00000 0.00000
vn 0.00000 -1.00000 0.00000
vn 0.00000 1.00000 0.00000
vn 0.00000 1.00000 0.00000
vn 0.00000 1.00000 0.00000
vn 0.00000 1.00000 0.00000
vn 0.00000 1.00000 0.00000
vn 0.00000 1.00000 0.00000
vn 0.00000 0.00000 -1.00000
vn 0.00000 0.00000 -1.00000
vn 0.00000 0.00000 -1.00000
vn 0.00000 0.00000 -1.00000
vn 0.00000 0.00000 -1.00000
vn 0.00000 0.00000 -1.00000
vn 0.00000 0.00000 1.00000
vn 0.00000 0.00000 1.00000
vn 0.00000 0.00000 1.00000
vn 0.00000 0.00000 1.00000
vn 0.00000 0.00000 1.00000
vn 0.00000 0.00000 1.00000

# mesh-2: faces
usemtl MATERIAL2
f 297/297/297 298/298/298 299/299/299
f 300/300/300 301/301/301 302/302/302
f 303/303/303 304/304/304 305/305/305
f 306/306/306 307/307/307 308/308/308
f 309/309/309 310/310/310 311/311/311
f 312/312/312 313/313/313 314/314/314
f 315/315/315 316/316/316 317/317/317
f 318/318/318 319/319/319 320/320/320
f 321/321/321 322/322/322 323/323/323
f 324/324/324 325/325/325 326/326/326
f 327/327/327 328/328/328 329/329/329
f 330/330/330 331/331/331 332/332/332

