#
# Wavefront object file
# CHAI3D
# http://www.chai3d.org
#


mtllib gun.mat
# object gun
g gun

# mesh-0: vertices
v -0.30000 0.60000 0.25000
v -0.30000 0.60000 -0.25000
v -0.30000 -0.20000 -0.25000
v -0.30000 0.60000 0.25000
v -0.30000 -0.20000 -0.25000
v -0.30000 -0.20000 0.25000
v 0.30000 -0.20000 0.25000
v 0.30000 -0.20000 -0.25000
v 0.30000 0.60000 -0.25000
v 0.30000 -0.20000 0.25000
v 0.30000 0.60000 -0.25000
v 0.30000 0.60000 0.25000
v 0.30000 -0.20000 0.25000
v -0.30000 -0.20000 0.25000
v -0.30000 -0.20000 -0.25000
v 0.30000 -0.20000 0.25000
v -0.30000 -0.20000 -0.25000
v 0.30000 -0.20000 -0.25000
v 0.30000 0.60000 0.25000
v 0.30000 0.60000 -0.25000
v -0.30000 0.60000 -0.25000
v 0.30000 0.60000 0.25000
v -0.30000 0.60000 -0.25000
v -0.30000 0.60000 0.25000
v -0.30000 -0.20000 -0.25000
v -0.30000 0.60000 -0.25000
v 0.30000 0.60000 -0.25000
v -0.30000 -0.20000 -0.25000
v 0.30000 0.60000 -0.25000
v 0.30000 -0.20000 -0.25000
v -0.30000 -0.20000 0.25000
v 0.30000 -0.20000 0.25000
v 0.30000 0.60000 0.25000
v -0.30000 -0.20000 0.25000
v 0.30000 0.60000 0.25000
v -0.30000 0.60000 0.25000

# mesh-0: normals
vn -1.00000 0.00000 0.00000
vn -1.00000 0.00000 0.00000
vn -1.00000 0.00000 0.00000
vn -1.00000 0.00000 0.00000
vn -1.00000 0.00000 0.00000
vn -1.00000 0.00000 0.00000
vn 1.00000 0.00000 0.00000
vn 1.00000 0.00000 0.00000
vn 1.00000 0.00000 0.00000
vn 1.00000 0.00000 0.00000
vn 1.00000 0.00000 0.00000
vn 1.00000 0.00000 0.00000
vn 0.00000 -1.00000 0.00000
vn 0.00000 -1.00000 0.00000
vn 0.00000 -1.00000 0.00000
vn 0.00000 -1.00000 0.00000
vn 0.00000 -1.00000 0.00000
vn 0.00000 -1.00000 0.00000
vn 0.00000 1.00000 0.00000
vn 0.00000 1.00000 0.00000
vn 0.00000 1.00000 0.00000
vn 0.00000 1.00000 0.00000
vn 0.00000 1.00000 0.00000
vn 0.00000 1.00000 0.00000
vn 0.00000 0.00000 -1.00000
vn 0.00000 0.00000 -1.00000
vn 0.00000 0.00000 -1.00000
vn 0.00000 0.00000 -1.00000
vn 0.00000 0.00000 -1.00000
vn 0.00000 0.00000 -1.00000
vn 0.00000 0.00000 1.00000
vn 0.00000 0.00000 1.00000
vn 0.00000 0.00000 1.00000
vn 0.00000 0.00000 1.00000
vn 0.00000 0.00000 1.00000
vn 0.00000 0.00000 1.00000

# mesh-0: faces
usemtl MATERIAL0
f 1/1/1 2/2/2 3/3/3
f 4/4/4 5/5/5 6/6/6
f 7/7/7 8/8/8 9/9/9
f 10/10/10 11/11/11 12/12/12
f 13/13/13 14/14/14 15/15/15
f 16/16/16 17/17/17 18/18/18
f 19/19/19 20/20/20 21/21/21
f 22/22/22 23/23/23 24/24/24
f 25/25/25 26/26/26 27/27/27
f 28/28/28 29/29/29 30/30/30
f 31/31/31 32/32/32 33/33/33
f 34/34/34 35/35/35 36/36/36

# mesh-1: vertices
v -0.08000 0.00000 0.15000
v -0.08000 1.40000 0.15000
v -0.08341 -0.00000 0.12412
v -0.08341 1.40000 0.12412
v -0.09340 -0.00000 0.10000
v -0.09340 1.40000 0.10000
v -0.10929 -0.00000 0.07929
v -0.10929 1.40000 0.07929
v -0.13000 -0.00000 0.06340
v -0.13000 1.40000 0.06340
v -0.15412 -0.00000 0.05341
v -0.15412 1.40000 0.05341
v -0.18000 -0.00000 0.05000
v -0.18000 1.40000 0.05000
v -0.20588 -0.00000 0.05341
v -0.20588 1.40000 0.05341
v -0.23000 -0.00000 0.06340
v -0.23000 1.40000 0.06340
v -0.25071 -0.00000 0.07929
v -0.25071 1.40000 0.07929
v -0.26660 -0.00000 0.10000
v -0.26660 1.40000 0.10000
v -0.27659 -0.00000 0.12412
v -0.27659 1.40000 0.12412
v -0.28000 -0.00000 0.15000
v -0.28000 1.40000 0.15000
v -0.27659 0.00000 0.17588
v -0.27659 1.40000 0.17588
v -0.26660 0.00000 0.20000
v -0.26660 1.40000 0.20000
v -0.25071 0.00000 0.22071
v -0.25071 1.40000 0.22071
v -0.23000 0.00000 0.23660
v -0.23000 1.40000 0.23660
v -0.20588 0.00000 0.24659
v -0.20588 1.40000 0.24659
v -0.18000 0.00000 0.25000
v -0.18000 1.40000 0.25000
v -0.15412 0.00000 0.24659
v -0.15412 1.40000 0.24659
v -0.13000 0.00000 0.23660
v -0.13000 1.40000 0.23660
v -0.10929 0.00000 0.22071
v -0.10929 1.40000 0.22071
v -0.09340 0.00000 0.20000
v -0.09340 1.40000 0.20000
v -0.08341 0.00000 0.17588
v -0.08341 1.40000 0.17588
v -0.08000 0.00000 0.15000
v -0.08000 1.40000 0.15000
v -0.18000 0.00000 0.15000
v -0.08000 0.00000 0.15000
v -0.08341 0.00000 0.17588
v -0.09340 0.00000 0.20000
v -0.10929 0.00000 0.22071
v -0.13000 0.00000 0.23660
v -0.15412 0.00000 0.24659
v -0.18000 0.00000 0.25000
v -0.20588 0.00000 0.24659
v -0.23000 0.00000 0.23660
v -0.25071 0.00000 0.22071
v -0.26660 0.00000 0.20000
v -0.27659 0.00000 0.17588
v -0.28000 0.00000 0.15000
v -0.27659 -0.00000 0.12412
v -0.26660 -0.00000 0.10000
v -0.25071 -0.00000 0.07929
v -0.23000 -0.00000 0.06340
v -0.20588 -0.00000 0.05341
v -0.18000 -0.00000 0.05000
v -0.15412 -0.00000 0.05341
v -0.13000 -0.00000 0.06340
v -0.10929 -0.00000 0.07929
v -0.09340 -0.00000 0.10000
v -0.08341 -0.00000 0.12412
v -0.18000 1.40000 0.15000
v -0.08000 1.40000 0.15000
v -0.08341 1.40000 0.12412
v -0.09340 1.40000 0.10000
v -0.10929 1.40000 0.07929
v -0.13000 1.40000 0.06340
v -0.15412 1.40000 0.05341
v -0.18000 1.40000 0.05000
v -0.20588 1.40000 0.05341
v -0.23000 1.40000 0.06340
v -0.25071 1.40000 0.07929
v -0.26660 1.40000 0.10000
v -0.27659 1.40000 0.12412
v -0.28000 1.40000 0.15000
v -0.27659 1.40000 0.17588
v -0.26660 1.40000 0.20000
v -0.25071 1.40000 0.22071
v -0.23000 1.40000 0.23660
v -0.20588 1.40000 0.24659
v -0.18000 1.40000 0.25000
v -0.15412 1.40000 0.24659
v -0.13000 1.40000 0.23660
v -0.10929 1.40000 0.22071
v -0.09340 1.40000 0.20000
v -0.08341 1.40000 0.17588

# mesh-1: normals
vn 1.00000 0.00000 0.00000
vn 1.00000 0.00000 0.00000
vn 0.96593 -0.00000 -0.25882
vn 0.96593 -0.00000 -0.25882
vn 0.86603 -0.00000 -0.50000
vn 0.86603 -0.00000 -0.50000
vn 0.70711 -0.00000 -0.70711
vn 0.70711 -0.00000 -0.70711
vn 0.50000 -0.00000 -0.86603
vn 0.50000 -0.00000 -0.86603
vn 0.25882 -0.00000 -0.96593
vn 0.25882 -0.00000 -0.96593
vn 0.00000 -0.00000 -1.00000
vn 0.00000 -0.00000 -1.00000
vn -0.25882 -0.00000 -0.96593
vn -0.25882 -0.00000 -0.96593
vn -0.50000 -0.00000 -0.86603
vn -0.50000 -0.00000 -0.86603
vn -0.70711 -0.00000 -0.70711
vn -0.70711 -0.00000 -0.70711
vn -0.86603 -0.00000 -0.50000
vn -0.86603 -0.00000 -0.50000
vn -0.96593 -0.00000 -0.25882
vn -0.96593 -0.00000 -0.25882
vn -1.00000 -0.00000 -0.00000
vn -1.00000 -0.00000 -0.00000
vn -0.96593 0.00000 0.25882
vn -0.96593 0.00000 0.25882
vn -0.86603 0.00000 0.50000
vn -0.86603 0.00000 0.50000
vn -0.70711 0.00000 0.70711
vn -0.70711 0.00000 0.70711
vn -0.50000 0.00000 0.86603
vn -0.50000 0.00000 0.86603
vn -0.25882 0.00000 0.96593
vn -0.25882 0.00000 0.96593
vn -0.00000 0.00000 1.00000
vn -0.00000 0.00000 1.00000
vn 0.25882 0.00000 0.96593
vn 0.25882 0.00000 0.96593
vn 0.50000 0.00000 0.86603
vn 0.50000 0.00000 0.86603
vn 0.70711 0.00000 0.70711
vn 0.70711 0.00000 0.70711
vn 0.86603 0.00000 0.50000
vn 0.86603 0.00000 0.50000
vn 0.96593 0.00000 0.25882
vn 0.96593 0.00000 0.25882
vn 1.00000 0.00000 0.00000
vn 1.00000 0.00000 0.00000
vn 0.00000 -1.00000 0.00000
vn 0.00000 -1.00000 0.00000
vn 0.00000 -1.00000 0.00000
vn 0.00000 -1.00000 0.00000
vn 0.00000 -1.00000 0.00000
vn 0.00000 -1.00000 0.00000
vn 0.00000 -1.00000 0.00000
vn 0.00000 -1.00000 0.00000
vn 0.00000 -1.00000 0.00000
vn 0.00000 -1.00000 0.00000
vn 0.00000 -1.00000 0.00000
vn 0.00000 -1.00000 0.00000
vn 0.00000 -1.00000 0.00000
vn 0.00000 -1.00000 0.00000
vn 0.00000 -1.00000 0.00000
vn 0.00000 -1.00000 0.00000
vn 0.00000 -1.00000 0.00000
vn 0.00000 -1.00000 0.00000
vn 0.00000 -1.00000 0.00000
vn 0.00000 -1.00000 0.00000
vn 0.00000 -1.00000 0.00000
vn 0.00000 -1.00000 0.00000
vn 0.00000 -1.00000 0.00000
vn 0.00000 -1.00000 0.00000
vn 0.00000 -1.00000 0.00000
vn 0.00000 1.00000 -0.00000
vn 0.00000 1.00000 -0.00000
vn 0.00000 1.00000 -0.00000
vn 0.00000 1.00000 -0.00000
vn 0.00000 1.00000 -0.00000
vn 0.00000 1.00000 -0.00000
vn 0.00000 1.00000 -0.00000
vn 0.00000 1.00000 -0.00000
vn 0.00000 1.00000 -0.00000
vn 0.00000 1.00000 -0.00000
vn 0.00000 1.00000 -0.00000
vn 0.00000 1.00000 -0.00000
vn 0.00000 1.00000 -0.00000
vn 0.00000 1.00000 -0.00000
vn 0.00000 1.00000 -0.00000
vn 0.00000 1.00000 -0.00000
vn 0.00000 1.00000 -0.00000
vn 0.00000 1.00000 -0.00000
vn 0.00000 1.00000 -0.00000
vn 0.00000 1.00000 -0.00000
vn 0.00000 1.00000 -0.00000
vn 0.00000 1.00000 -0.00000
vn 0.00000 1.00000 -0.00000
vn 0.00000 1.00000 -0.00000
vn 0.00000 1.00000 -0.00000

# mesh-1: faces
usemtl MATERIAL1
f 37/37/37 39/39/39 40/40/40
f 37/37/37 40/40/40 38/38/38
f 39/39/39 41/41/41 42/42/42
f 39/39/39 42/42/42 40/40/40
f 41/41/41 43/43/43 44/44/44
f 41/41/41 44/44/44 42/42/42
f 43/43/43 45/45/45 46/46/46
f 43/43/43 46/46/46 44/44/44
f 45/45/45 47/47/47 48/48/48
f 45/45/45 48/48/48 46/46/46
f 47/47/47 49/49/49 50/50/50
f 47/47/47 50/50/50 48/48/48
f 49/49/49 51/51/51 52/52/52
f 49/49/49 52/52/52 50/50/50
f 51/51/51 53/53/53 54/54/54
f 51/51/51 54/54/54 52/52/52
f 53/53/53 55/55/55 56/56/56
f 53/53/53 56/56/56 54/54/54
f 55/55/55 57/57/57 58/58/58
f 55/55/55 58/58/58 56/56/56
f 57/57/57 59/59/59 60/60/60
f 57/57/57 60/60/60 58/58/58
f 59/59/59 61/61/61 62/62/62
f 59/59/59 62/62/62 60/60/60
f 61/61/61 63/63/63 64/64/64
f 61/61/61 64/64/64 62/62/62
f 63/63/63 65/65/65 66/66/66
f 63/63/63 66/66/66 64/64/64
f 65/65/65 67/67/67 68/68/68
f 65/65/65 68/68/68 66/66/66
f 67/67/67 69/69/69 70/70/70
f 67/67/67 70/70/70 68/68/68
f 69/69/69 71/71/71 72/72/72
f 69/69/69 72/72/72 70/70/70
f 71/71/71 73/73/73 74/74/74
f 71/71/71 74/74/74 72/72/72
f 73/73/73 75/75/75 76/76/76
f 73/73/73 76/76/76 74/74/74
f 75/75/75 77/77/77 78/78/78
f 75/75/75 78/78/78 76/76/76
f 77/77/77 79/79/79 80/80/80
f 77/77/77 80/80/80 78/78/78
f 79/79/79 81/81/81 82/82/82
f 79/79/79 82/82/82 80/80/80
f 81/81/81 83/83/83 84/84/84
f 81/81/81 84/84/84 82/82/82
f 83/83/83 85/85/85 86/86/86
f 83/83/83 86/86/86 84/84/84
f 87/87/87 88/88/88 89/89/89
f 87/87/87 89/89/89 90/90/90
f 87/87/87 90/90/90 91/91/91
f 87/87/87 91/91/91 92/92/92
f 87/87/87 92/92/92 93/93/93
f 87/87/87 93/93/93 94/94/94
f 87/87/87 94/94/94 95/95/95
f 87/87/87 95/95/95 96/96/96
f 87/87/87 96/96/96 97/97/97
f 87/87/87 97/97/97 98/98/98
f 87/87/87 98/98/98 99/99/99
f 87/87/87 99/99/99 100/100/100
f 87/87/87 100/100/100 101/101/101
f 87/87/87 101/101/101 102/102/102
f 87/87/87 102/102/102 103/103/103
f 87/87/87 103/103/103 104/104/104
f 87/87/87 104/104/104 105/105/105
f 87/87/87 105/105/105 106/106/106
f 87/87/87 106/106/106 107/107/107
f 87/87/87 107/107/107 108/108/108
f 87/87/87 108/108/108 109/109/109
f 87/87/87 109/109/109 110/110/110
f 87/87/87 110/110/110 111/111/111
f 87/87/87 111/111/111 88/88/88
f 112/112/112 113/113/113 114/114/114
f 112/112/112 114/114/114 115/115/115
f 112/112/112 115/115/115 116/116/116
f 112/112/112 116/116/116 117/117/117
f 112/112/112 117/117/117 118/118/118
f 112/112/112 118/118/118 119/119/119
f 112/112/112 119/119/119 120/120/120
f 112/112/112 120/120/120 121/121/121
f 112/112/112 121/121/121 122/122/122
f 112/112/112 122/122/122 123/123/123
f 112/112/112 123/123/123 124/124/124
f 112/112/112 124/124/124 125/125/125
f 112/112/112 125/125/125 126/126/126
f 112/112/112 126/126/126 127/127/127
f 112/112/112 127/127/127 128/128/128
f 112/112/112 128/128/128 129/129/129
f 112/112/112 129/129/129 130/130/130
f 112/112/112 130/130/130 131/131/131
f 112/112/112 131/131/131 132/132/132
f 112/112/112 132/132/132 133/133/133
f 112/112/112 133/133/133 134/134/134
f 112/112/112 134/134/134 135/135/135
f 112/112/112 135/135/135 136/136/136
f 112/112/112 136/136/136 113/113/113

# mesh-2: vertices
v 0.28000 0.00000 0.15000
v 0.28000 1.40000 0.15000
v 0.27659 -0.00000 0.12412
v 0.27659 1.40000 0.12412
v 0.26660 -0.00000 0.10000
v 0.26660 1.40000 0.10000
v 0.25071 -0.00000 0.07929
v 0.25071 1.40000 0.07929
v 0.23000 -0.00000 0.06340
v 0.23000 1.40000 0.06340
v 0.20588 -0.00000 0.05341
v 0.20588 1.40000 0.05341
v 0.18000 -0.00000 0.05000
v 0.18000 1.40000 0.05000
v 0.15412 -0.00000 0.05341
v 0.15412 1.40000 0.05341
v 0.13000 -0.00000 0.06340
v 0.13000 1.40000 0.06340
v 0.10929 -0.00000 0.07929
v 0.10929 1.40000 0.07929
v 0.09340 -0.00000 0.10000
v 0.09340 1.40000 0.10000
v 0.08341 -0.00000 0.12412
v 0.08341 1.40000 0.12412
v 0.08000 -0.00000 0.15000
v 0.08000 1.40000 0.15000
v 0.08341 0.00000 0.17588
v 0.08341 1.40000 0.17588
v 0.09340 0.00000 0.20000
v 0.09340 1.40000 0.20000
v 0.10929 0.00000 0.22071
v 0.10929 1.40000 0.22071
v 0.13000 0.00000 0.23660
v 0.13000 1.40000 0.23660
v 0.15412 0.00000 0.24659
v 0.15412 1.40000 0.24659
v 0.18000 0.00000 0.25000
v 0.18000 1.40000 0.25000
v 0.20588 0.00000 0.24659
v 0.20588 1.40000 0.24659
v 0.23000 0.00000 0.23660
v 0.23000 1.40000 0.23660
v 0.25071 0.00000 0.22071
v 0.25071 1.40000 0.22071
v 0.26660 0.00000 0.20000
v 0.26660 1.40000 0.20000
v 0.27659 0.00000 0.17588
v 0.27659 1.40000 0.17588
v 0.28000 0.00000 0.15000
v 0.28000 1.40000 0.15000
v 0.18000 0.00000 0.15000
v 0.28000 0.00000 0.15000
v 0.27659 0.00000 0.17588
v 0.26660 0.00000 0.20000
v 0.25071 0.00000 0.22071
v 0.23000 0.00000 0.23660
v 0.20588 0.00000 0.24659
v 0.18000 0.00000 0.25000
v 0.15412 0.00000 0.24659
v 0.13000 0.00000 0.23660
v 0.10929 0.00000 0.22071
v 0.09340 0.00000 0.20000
v 0.08341 0.00000 0.17588
v 0.08000 0.00000 0.15000
v 0.08341 -0.00000 0.12412
v 0.09340 -0.00000 0.10000
v 0.10929 -0.00000 0.07929
v 0.13000 -0.00000 0.06340
v 0.15412 -0.00000 0.05341
v 0.18000 -0.00000 0.05000
v 0.20588 -0.00000 0.05341
v 0.23000 -0.00000 0.06340
v 0.25071 -0.00000 0.07929
v 0.26660 -0.00000 0.10000
v 0.27659 -0.00000 0.12412
v 0.18000 1.40000 0.15000
v 0.28000 1.40000 0.15000
v 0.27659 1.40000 0.12412
v 0.26660 1.40000 0.10000
v 0.25071 1.40000 0.07929
v 0.23000 1.40000 0.06340
v 0.20588 1.40000 0.05341
v 0.18000 1.40000 0.05000
v 0.15412 1.40000 0.05341
v 0.13000 1.40000 0.06340
v 0.10929 1.40000 0.07929
v 0.09340 1.40000 0.10000
v 0.08341 1.40000 0.12412
v 0.08000 1.40000 0.15000
v 0.08341 1.40000 0.17588
v 0.09340 1.40000 0.20000
v 0.10929 1.40000 0.22071
v 0.13000 1.40000 0.23660
v 0.15412 1.40000 0.24659
v 0.18000 1.40000 0.25000
v 0.20588 1.40000 0.24659
v 0.23000 1.40000 0.23660
v 0.25071 1.40000 0.22071
v 0.26660 1.40000 0.20000
v 0.27659 1.40000 0.17588

# mesh-2: normals
vn 1.00000 0.00000 0.00000
vn 1.00000 0.00000 0.00000
vn 0.96593 -0.00000 -0.25882
vn 0.96593 -0.00000 -0.25882
vn 0.86603 -0.00000 -0.50000
vn 0.86603 -0.00000 -0.50000
vn 0.70711 -0.00000 -0.70711
vn 0.70711 -0.00000 -0.70711
vn 0.50000 -0.00000 -0.86603
vn 0.50000 -0.00000 -0.86603
vn 0.25882 -0.00000 -0.96593
vn 0.25882 -0.00000 -0.96593
vn 0.00000 -0.00000 -1.00000
vn 0.00000 -0.00000 -1.00000
vn -0.25882 -0.00000 -0.96593
vn -0.25882 -0.00000 -0.96593
vn -0.50000 -0.00000 -0.86603
vn -0.50000 -0.00000 -0.86603
vn -0.70711 -0.00000 -0.70711
vn -0.70711 -0.00000 -0.70711
vn -0.86603 -0.00000 -0.50000
vn -0.86603 -0.00000 -0.50000
vn -0.96593 -0.00000 -0.25882
vn -0.96593 -0.00000 -0.25882
vn -1.00000 -0.00000 -0.00000
vn -1.00000 -0.00000 -0.00000
vn -0.96593 0.00000 0.25882
vn -0.96593 0.00000 0.25882
vn -0.86603 0.00000 0.50000
vn -0.86603 0.00000 0.50000
vn -0.70711 0.00000 0.70711
vn -0.70711 0.00000 0.70711
vn -0.50000 0.00000 0.86603
vn -0.50000 0.00000 0.86603
vn -0.25882 0.00000 0.96593
vn -0.25882 0.00000 0.96593
vn -0.00000 0.00000 1.00000
vn -0.00000 0.00000 1.00000
vn 0.25882 0.00000 0.96593
vn 0.25882 0.00000 0.96593
vn 0.50000 0.00000 0.86603
vn 0.50000 0.00000 0.86603
vn 0.70711 0.00000 0.70711
vn 0.70711 0.00000 0.70711
vn 0.86603 0.00000 0.50000
vn 0.86603 0.00000 0.50000
vn 0.96593 0.00000 0.25882
vn 0.96593 0.00000 0.25882
vn 1.00000 0.00000 0.00000
vn 1.00000 0.00000 0.00000
vn 0.00000 -1.00000 0.00000
vn 0.00000 -1.00000 0.00000
vn 0.00000 -1.00000 0.00000
vn 0.00000 -1.00000 0.00000
vn 0.00000 -1.00000 0.00000
vn 0.00000 -1.00000 0.00000
vn 0.00000 -1.00000 0.00000
vn 0.00000 -1.00000 0.00000
vn 0.00000 -1.00000 0.00000
vn 0.00000 -1.00000 0.00000
vn 0.00000 -1.00000 0.00000
vn 0.00000 -1.00000 0.00000
vn 0.00000 -1.00000 0.00000
vn 0.00000 -1.00000 0.00000
vn 0.00000 -1.00000 0.00000
vn 0.00000 -1.00000 0.00000
vn 0.00000 -1.00000 0.00000
vn 0.00000 -1.00000 0.00000
vn 0.00000 -1.00000 0.00000
vn 0.00000 -1.00000 0.00000
vn 0.00000 -1.00000 0.00000
vn 0.00000 -1.00000 0.00000
vn 0.00000 -1.00000 0.00000
vn 0.00000 -1.00000 0.00000
vn 0.00000 -1.00000 0.00000
vn 0.00000 1.00000 -0.00000
vn 0.00000 1.00000 -0.00000
vn 0.00000 1.00000 -0.00000
vn 0.00000 1.00000 -0.00000
vn 0.00000 1.00000 -0.00000
vn 0.00000 1.00000 -0.00000
vn 0.00000 1.00000 -0.00000
vn 0.00000 1.00000 -0.00000
vn 0.00000 1.00000 -0.00000
vn 0.00000 1.00000 -0.00000
vn 0.00000 1.00000 -0.00000
vn 0.00000 1.00000 -0.00000
vn 0.00000 1.00000 -0.00000
vn 0.00000 1.00000 -0.00000
vn 0.00000 1.00000 -0.00000
vn 0.00000 1.00000 -0.00000
vn 0.00000 1.00000 -0.00000
vn 0.00000 1.00000 -0.00000
vn 0.00000 1.00000 -0.00000
vn 0.00000 1.00000 -0.00000
vn 0.00000 1.00000 -0.00000
vn 0.00000 1.00000 -0.00000
vn 0.00000 1.00000 -0.00000
vn 0.00000 1.00000 -0.00000
vn 0.00000 1.00000 -0.00000

# mesh-2: faces
usemtl MATERIAL2
f 137/137/137 139/139/139 140/140/140
f 137/137/137 140/140/140 138/138/138
f 139/139/139 141/141/141 142/142/142
f 139/139/139 142/142/142 140/140/140
f 141/141/141 143/143/143 144/144/144
f 141/141/141 144/144/144 142/142/142
f 143/143/143 145/145/145 146/146/146
f 143/143/143 146/146/146 144/144/144
f 145/145/145 147/147/147 148/148/148
f 145/145/145 148/148/148 146/146/146
f 147/147/147 149/149/149 150/150/150
f 147/147/147 150/150/150 148/148/148
f 149/149/149 151/151/151 152/152/152
f 149/149/149 152/152/152 150/150/150
f 151/151/151 153/153/153 154/154/154
f 151/151/151 154/154/154 152/152/152
f 153/153/153 155/155/155 156/156/156
f 153/153/153 156/156/156 154/154/154
f 155/155/155 157/157/157 158/158/158
f 155/155/155 158/158/158 156/156/156
f 157/157/157 159/159/159 160/160/160
f 157/157/157 160/160/160 158/158/158
f 159/159/159 161/161/161 162/162/162
f 159/159/159 162/162/162 160/160/160
f 161/161/161 163/163/163 164/164/164
f 161/161/161 164/164/164 162/162/162
f 163/163/163 165/165/165 166/166/166
f 163/163/163 166/166/166 164/164/164
f 165/165/165 167/167/167 168/168/168
f 165/165/165 168/168/168 166/166/166
f 167/167/167 169/169/169 170/170/170
f 167/167/167 170/170/170 168/168/168
f 169/169/169 171/171/171 172/172/172
f 169/169/169 172/172/172 170/170/170
f 171/171/171 173/173/173 174/174/174
f 171/171/171 174/174/174 172/172/172
f 173/173/173 175/175/175 176/176/176
f 173/173/173 176/176/176 174/174/174
f 175/175/175 177/177/177 178/178/178
f 175/175/175 178/178/178 176/176/176
f 177/177/177 179/179/179 180/180/180
f 177/177/177 180/180/180 178/178/178
f 179/179/179 181/181/181 182/182/182
f 179/179/179 182/182/182 180/180/180
f 181/181/181 183/183/183 184/184/184
f 181/181/181 184/184/184 182/182/182
f 183/183/183 185/185/185 186/186/186
f 183/183/183 186/186/186 184/184/184
f 187/187/187 188/188/188 189/189/189
f 187/187/187 189/189/189 190/190/190
f 187/187/187 190/190/190 191/191/191
f 187/187/187 191/191/191 192/192/192
f 187/187/187 192/192/192 193/193/193
f 187/187/187 193/193/193 194/194/194
f 187/187/187 194/194/194 195/195/195
f 187/187/187 195/195/195 196/196/196
f 187/187/187 196/196/196 197/197/197
f 187/187/187 197/197/197 198/198/198
f 187/187/187 198/198/198 199/199/199
f 187/187/187 199/199/199 200/200/200
f 187/187/187 200/200/200 201/201/201
f 187/187/187 201/201/201 202/202/202
f 187/187/187 202/202/202 203/203/203
f 187/187/187 203/203/203 204/204/204
f 187/187/187 204/204/204 205/205/205
f 187/187/187 205/205/205 206/206/206
f 187/187/187 206/206/206 207/207/207
f 187/187/187 207/207/207 208/208/208
f 187/187/187 208/208/208 209/209/209
f 187/187/187 209/209/209 210/210/210
f 187/187/187 210/210/210 211/211/211
f 187/187/187 211/211/211 188/188/188
f 212/212/212 213/213/213 214/214/214
f 212/212/212 214/214/214 215/215/215
f 212/212/212 215/215/215 216/216/216
f 212/212/212 216/216/216 217/217/217
f 212/212/212 217/217/217 218/218/218
f 212/212/212 218/218/218 219/219/219
f 212/212/212 219/219/219 220/220/220
f 212/212/212 220/220/220 221/221/221
f 212/212/212 221/221/221 222/222/222
f 212/212/212 222/222/222 223/223/223
f 212/212/212 223/223/223 224/224/224
f 212/212/212 224/224/224 225/225/225
f 212/212/212 225/225/225 226/226/226
f 212/212/212 226/226/226 227/227/227
f 212/212/212 227/227/227 228/228/228
f 212/212/212 228/228/228 229/229/229
f 212/212/212 229/229/229 230/230/230
f 212/212/212 230/230/230 231/231/231
f 212/212/212 231/231/231 232/232/232
f 212/212/212 232/232/232 233/233/233
f 212/212/212 233/233/233 234/234/234
f 212/212/212 234/234/234 235/235/235
f 212/212/212 235/235/235 236/236/236
f 212/212/212 236/236/236 213/213/213

# mesh-3: vertices
v -0.04000 1.35000 0.15000
v -0.04000 1.50000 0.15000
v -0.04477 1.35000 0.11377
v -0.04477 1.50000 0.11377
v -0.05876 1.35000 0.08000
v -0.05876 1.50000 0.08000
v -0.08101 1.35000 0.05101
v -0.08101 1.50000 0.05101
v -0.11000 1.35000 0.02876
v -0.11000 1.50000 0.02876
v -0.14377 1.35000 0.01477
v -0.14377 1.50000 0.01477
v -0.18000 1.35000 0.01000
v -0.18000 1.50000 0.01000
v -0.21623 1.35000 0.01477
v -0.21623 1.50000 0.01477
v -0.25000 1.35000 0.02876
v -0.25000 1.50000 0.02876
v -0.27899 1.35000 0.05101
v -0.27899 1.50000 0.05101
v -0.30124 1.35000 0.08000
v -0.30124 1.50000 0.08000
v -0.31523 1.35000 0.11377
v -0.31523 1.50000 0.11377
v -0.32000 1.35000 0.15000
v -0.32000 1.50000 0.15000
v -0.31523 1.35000 0.18623
v -0.31523 1.50000 0.18623
v -0.30124 1.35000 0.22000
v -0.30124 1.50000 0.22000
v -0.27899 1.35000 0.24899
v -0.27899 1.50000 0.24899
v -0.25000 1.35000 0.27124
v -0.25000 1.50000 0.27124
v -0.21623 1.35000 0.28523
v -0.21623 1.50000 0.28523
v -0.18000 1.35000 0.29000
v -0.18000 1.50000 0.29000
v -0.14377 1.35000 0.28523
v -0.14377 1.50000 0.28523
v -0.11000 1.35000 0.27124
v -0.11000 1.50000 0.27124
v -0.08101 1.35000 0.24899
v -0.08101 1.50000 0.24899
v -0.05876 1.35000 0.22000
v -0.05876 1.50000 0.22000
v -0.04477 1.35000 0.18623
v -0.04477 1.50000 0.18623
v -0.04000 1.35000 0.15000
v -0.04000 1.50000 0.15000
v -0.18000 1.35000 0.15000
v -0.04000 1.35000 0.15000
v -0.04477 1.35000 0.18623
v -0.05876 1.35000 0.22000
v -0.08101 1.35000 0.24899
v -0.11000 1.35000 0.27124
v -0.14377 1.35000 0.28523
v -0.18000 1.35000 0.29000
v -0.21623 1.35000 0.28523
v -0.25000 1.35000 0.27124
v -0.27899 1.35000 0.24899
v -0.30124 1.35000 0.22000
v -0.31523 1.35000 0.18623
v -0.32000 1.35000 0.15000
v -0.31523 1.35000 0.11377
v -0.30124 1.35000 0.08000
v -0.27899 1.35000 0.05101
v -0.25000 1.35000 0.02876
v -0.21623 1.35000 0.01477
v -0.18000 1.35000 0.01000
v -0.14377 1.35000 0.01477
v -0.11000 1.35000 0.02876
v -0.08101 1.35000 0.05101
v -0.05876 1.35000 0.08000
v -0.04477 1.35000 0.11377
v -0.18000 1.50000 0.15000
v -0.04000 1.50000 0.15000
v -0.04477 1.50000 0.11377
v -0.05876 1.50000 0.08000
v -0.08101 1.50000 0.05101
v -0.11000 1.50000 0.02876
v -0.14377 1.50000 0.01477
v -0.18000 1.50000 0.01000
v -0.21623 1.50000 0.01477
v -0.25000 1.50000 0.02876
v -0.27899 1.50000 0.05101
v -0.30124 1.50000 0.08000
v -0.31523 1.50000 0.11377
v -0.32000 1.50000 0.15000
v -0.31523 1.50000 0.18623
v -0.30124 1.50000 0.22000
v -0.27899 1.50000 0.24899
v -0.25000 1.50000 0.27124
v -0.21623 1.50000 0.28523
v -0.18000 1.50000 0.29000
v -0.14377 1.50000 0.28523
v -0.11000 1.50000 0.27124
v -0.08101 1.50000 0.24899
v -0.05876 1.50000 0.22000
v -0.04477 1.50000 0.18623

# mesh-3: normals
vn 1.00000 0.00000 0.00000
vn 1.00000 0.00000 0.00000
vn 0.96593 -0.00000 -0.25882
vn 0.96593 -0.00000 -0.25882
vn 0.86603 -0.00000 -0.50000
vn 0.86603 -0.00000 -0.50000
vn 0.70711 -0.00000 -0.70711
vn 0.70711 -0.00000 -0.70711
vn 0.50000 -0.00000 -0.86603
vn 0.50000 -0.00000 -0.86603
vn 0.25882 -0.00000 -0.96593
vn 0.25882 -0.00000 -0.96593
vn 0.00000 -0.00000 -1.00000
vn 0.00000 -0.00000 -1.00000
vn -0.25882 -0.00000 -0.96593
vn -0.25882 -0.00000 -0.96593
vn -0.50000 -0.00000 -0.86603
vn -0.50000 -0.00000 -0.86603
vn -0.70711 -0.00000 -0.70711
vn -0.70711 -0.00000 -0.70711
vn -0.86603 -0.00000 -0.50000
vn -0.86603 -0.00000 -0.50000
vn -0.96593 -0.00000 -0.25882
vn -0.96593 -0.00000 -0.25882
vn -1.00000 -0.00000 -0.00000
vn -1.00000 -0.00000 -0.00000
vn -0.96593 0.00000 0.25882
vn -0.96593 0.00000 0.25882
vn -0.86603 0.00000 0.50000
vn -0.86603 0.00000 0.50000
vn -0.70711 0.00000 0.70711
vn -0.70711 0.00000 0.70711
vn -0.50000 0.00000 0.86603
vn -0.50000 0.00000 0.86603
vn -0.25882 0.00000 0.96593
vn -0.25882 0.00000 0.96593
vn -0.00000 0.00000 1.00000
vn -0.00000 0.00000 1.00000
vn 0.25882 0.00000 0.96593
vn 0.25882 0.00000 0.96593
vn 0.50000 0.00000 0.86603
vn 0.50000 0.00000 0.86603
vn 0.70711 0.00000 0.70711
vn 0.70711 0.00000 0.70711
vn 0.86603 0.00000 0.50000
vn 0.86603 0.00000 0.50000
vn 0.96593 0.00000 0.25882
vn 0.96593 0.00000 0.25882
vn 1.00000 0.00000 0.00000
vn 1.00000 0.00000 0.00000
vn 0.00000 -1.00000 0.00000
vn 0.00000 -1.00000 0.00000
vn 0.00000 -1.00000 0.00000
vn 0.00000 -1.00000 0.00000
vn 0.00000 -1.00000 0.00000
vn 0.00000 -1.00000 0.00000
vn 0.00000 -1.00000 0.00000
vn 0.00000 -1.00000 0.00000
vn 0.00000 -1.00000 0.00000
vn 0.00000 -1.00000 0.00000
vn 0.00000 -1.00000 0.00000
vn 0.00000 -1.00000 0.00000
vn 0.00000 -1.00000 0.00000
vn 0.00000 -1.00000 0.00000
vn 0.00000 -1.00000 0.00000
vn 0.00000 -1.00000 0.00000
vn 0.00000 -1.00000 0.00000
vn 0.00000 -1.00000 0.00000
vn 0.00000 -1.00000 0.00000
vn 0.00000 -1.00000 0.00000
vn 0.00000 -1.00000 0.00000
vn 0.00000 -1.00000 0.00000
vn 0.00000 -1.00000 0.00000
vn 0.00000 -1.00000 0.00000
vn 0.00000 -1.00000 0.00000
vn 0.00000 1.00000 -0.00000
vn 0.00000 1.00000 -0.00000
vn 0.00000 1.00000 -0.00000
vn 0.00000 1.00000 -0.00000
vn 0.00000 1.00000 -0.00000
vn 0.00000 1.00000 -0.00000
vn 0.00000 1.00000 -0.00000
vn 0.00000 1.00000 -0.00000
vn 0.00000 1.00000 -0.00000
vn 0.00000 1.00000 -0.00000
vn 0.00000 1.00000 -0.00000
vn 0.00000 1.00000 -0.00000
vn 0.00000 1.00000 -0.00000
vn 0.00000 1.00000 -0.00000
vn 0.00000 1.00000 -0.00000
vn 0.00000 1.00000 -0.00000
vn 0.00000 1.00000 -0.00000
vn 0.00000 1.00000 -0.00000
vn 0.00000 1.00000 -0.00000
vn 0.00000 1.00000 -0.00000
vn 0.00000 1.00000 -0.00000
vn 0.00000 1.00000 -0.00000
vn 0.00000 1.00000 -0.00000
vn 0.00000 1.00000 -0.00000
vn 0.00000 1.00000 -0.00000

# mesh-3: faces
usemtl MATERIAL3
f 237/237/237 239/239/239 240/240/240
f 237/237/237 240/240/240 238/238/238
f 239/239/239 241/241/241 242/242/242
f 239/239/239 242/242/242 240/240/240
f 241/241/241 243/243/243 244/244/244
f 241/241/241 244/244/244 242/242/242
f 243/243/243 245/245/245 246/246/246
f 243/243/243 246/246/246 244/244/244
f 245/245/245 247/247/247 248/248/248
f 245/245/245 248/248/248 246/246/246
f 247/247/247 249/249/249 250/250/250
f 247/247/247 250/250/250 248/248/248
f 249/249/249 251/251/251 252/252/252
f 249/249/249 252/252/252 250/250/250
f 251/251/251 253/253/253 254/254/254
f 251/251/251 254/254/254 252/252/252
f 253/253/253 255/255/255 256/256/256
f 253/253/253 256/256/256 254/254/254
f 255/255/255 257/257/257 258/258/258
f 255/255/255 258/258/258 256/256/256
f 257/257/257 259/259/259 260/260/260
f 257/257/257 260/260/260 258/258/258
f 259/259/259 261/261/261 262/262/262
f 259/259/259 262/262/262 260/260/260
f 261/261/261 263/263/263 264/264/264
f 261/261/261 264/264/264 262/262/262
f 263/263/263 265/265/265 266/266/266
f 263/263/263 266/266/266 264/264/264
f 265/265/265 267/267/267 268/268/268
f 265/265/265 268/268/268 266/266/266
f 267/267/267 269/269/269 270/270/270
f 267/267/267 270/270/270 268/268/268
f 269/269/269 271/271/271 272/272/272
f 269/269/269 272/272/272 270/270/270
f 271/271/271 273/273/273 274/274/274
f 271/271/271 274/274/274 272/272/272
f 273/273/273 275/275/275 276/276/276
f 273/273/273 276/276/276 274/274/274
f 275/275/275 277/277/277 278/278/278
f 275/275/275 278/278/278 276/276/276
f 277/277/277 279/279/279 280/280/280
f 277/277/277 280/280/280 278/278/278
f 279/279/279 281/281/281 282/282/282
f 279/279/279 282/282/282 280/280/280
f 281/281/281 283/283/283 284/284/284
f 281/281/281 284/284/284 282/282/282
f 283/283/283 285/285/285 286/286/286
f 283/283/283 286/286/286 284/284/284
f 287/287/287 288/288/288 289/289/289
f 287/287/287 289/289/289 290/290/290
f 287/287/287 290/290/290 291/291/291
f 287/287/287 291/291/291 292/292/292
f 287/287/287 292/292/292 293/293/293
f 287/287/287 293/293/293 294/294/294
f 287/287/287 294/294/294 295/295/295
f 287/287/287 295/295/295 296/296/296
f 287/287/287 296/296/296 297/297/297
f 287/287/287 297/297/297 298/298/298
f 287/287/287 298/298/298 299/299/299
f 287/287/287 299/299/299 300/300/300
f 287/287/287 300/300/300 301/301/301
f 287/287/287 301/301/301 302/302/302
f 287/287/287 302/302/302 303/303/303
f 287/287/287 303/303/303 304/304/304
f 287/287/287 304/304/304 305/305/305
f 287/287/287 305/305/305 306/306/306
f 287/287/287 306/306/306 307/307/307
f 287/287/287 307/307/307 308/308/308
f 287/287/287 308/308/308 309/309/309
f 287/287/287 309/309/309 310/310/310
f 287/287/287 310/310/310 311/311/311
f 287/287/287 311/311/311 288/288/288
f 312/312/312 313/313/313 314/314/314
f 312/312/312 314/314/314 315/315/315
f 312/312/312 315/315/315 316/316/316
f 312/312/312 316/316/316 317/317/317
f 312/312/312 317/317/317 318/318/318
f 312/312/312 318/318/318 319/319/319
f 312/312/312 319/319/319 320/320/320
f 312/312/312 320/320/320 321/321/321
f 312/312/312 321/321/321 322/322/322
f 312/312/312 322/322/322 323/323/323
f 312/312/312 323/323/323 324/324/324
f 312/312/312 324/324/324 325/325/325
f 312/312/312 325/325/325 326/326/326
f 312/312/312 326/326/326 327/327/327
f 312/312/312 327/327/327 328/328/328
f 312/312/312 328/328/328 329/329/329
f 312/312/312 329/329/329 330/330/330
f 312/312/312 330/330/330 331/331/331
f 312/312/312 331/331/331 332/332/332
f 312/312/312 332/332/332 333/333/333
f 312/312/312 333/333/333 334/334/334
f 312/312/312 334/334/334 335/335/335
f 312/312/312 335/335/335 336/336/336
f 312/312/312 336/336/336 313/313/313

# mesh-4: vertices
v 0.32000 1.35000 0.15000
v 0.32000 1.50000 0.15000
v 0.31523 1.35000 0.11377
v 0.31523 1.50000 0.11377
v 0.30124 1.35000 0.08000
v 0.30124 1.50000 0.08000
v 0.27899 1.35000 0.05101
v 0.27899 1.50000 0.05101
v 0.25000 1.35000 0.02876
v 0.25000 1.50000 0.02876
v 0.21623 1.35000 0.01477
v 0.21623 1.50000 0.01477
v 0.18000 1.35000 0.01000
v 0.18000 1.50000 0.01000
v 0.14377 1.35000 0.01477
v 0.14377 1.50000 0.01477
v 0.11000 1.35000 0.02876
v 0.11000 1.50000 0.02876
v 0.08101 1.35000 0.05101
v 0.08101 1.50000 0.05101
v 0.05876 1.35000 0.08000
v 0.05876 1.50000 0.08000
v 0.04477 1.35000 0.11377
v 0.04477 1.50000 0.11377
v 0.04000 1.35000 0.15000
v 0.04000 1.50000 0.15000
v 0.04477 1.35000 0.18623
v 0.04477 1.50000 0.18623
v 0.05876 1.35000 0.22000
v 0.05876 1.50000 0.22000
v 0.08101 1.35000 0.24899
v 0.08101 1.50000 0.24899
v 0.11000 1.35000 0.27124
v 0.11000 1.50000 0.27124
v 0.14377 1.35000 0.28523
v 0.14377 1.50000 0.28523
v 0.18000 1.35000 0.29000
v 0.18000 1.50000 0.29000
v 0.21623 1.35000 0.28523
v 0.21623 1.50000 0.28523
v 0.25000 1.35000 0.27124
v 0.25000 1.50000 0.27124
v 0.27899 1.35000 0.24899
v 0.27899 1.50000 0.24899
v 0.30124 1.35000 0.22000
v 0.30124 1.50000 0.22000
v 0.31523 1.35000 0.18623
v 0.31523 1.50000 0.18623
v 0.32000 1.35000 0.15000
v 0.32000 1.50000 0.15000
v 0.18000 1.35000 0.15000
v 0.32000 1.35000 0.15000
v 0.31523 1.35000 0.18623
v 0.30124 1.35000 0.22000
v 0.27899 1.35000 0.24899
v 0.25000 1.35000 0.27124
v 0.21623 1.35000 0.28523
v 0.18000 1.35000 0.29000
v 0.14377 1.35000 0.28523
v 0.11000 1.35000 0.27124
v 0.08101 1.35000 0.24899
v 0.05876 1.35000 0.22000
v 0.04477 1.35000 0.18623
v 0.04000 1.35000 0.15000
v 0.04477 1.35000 0.11377
v 0.05876 1.35000 0.08000
v 0.08101 1.35000 0.05101
v 0.11000 1.35000 0.02876
v 0.14377 1.35000 0.01477
v 0.18000 1.35000 0.01000
v 0.21623 1.35000 0.01477
v 0.25000 1.35000 0.02876
v 0.27899 1.35000 0.05101
v 0.30124 1.35000 0.08000
v 0.31523 1.35000 0.11377
v 0.18000 1.50000 0.15000
v 0.32000 1.50000 0.15000
v 0.31523 1.50000 0.11377
v 0.30124 1.50000 0.08000
v 0.27899 1.50000 0.05101
v 0.25000 1.50000 0.02876
v 0.21623 1.50000 0.01477
v 0.18000 1.50000 0.01000
v 0.14377 1.50000 0.01477
v 0.11000 1.50000 0.02876
v 0.08101 1.50000 0.05101
v 0.05876 1.50000 0.08000
v 0.04477 1.50000 0.11377
v 0.04000 1.50000 0.15000
v 0.04477 1.50000 0.18623
v 0.05876 1.50000 0.22000
v 0.08101 1.50000 0.24899
v 0.11000 1.50000 0.27124
v 0.14377 1.50000 0.28523
v 0.18000 1.50000 0.29000
v 0.21623 1.50000 0.28523
v 0.25000 1.50000 0.27124
v 0.27899 1.50000 0.24899
v 0.30124 1.50000 0.22000
v 0.31523 1.50000 0.18623

# mesh-4: normals
vn 1.00000 0.00000 0.00000
vn 1.00000 0.00000 0.00000
vn 0.96593 -0.00000 -0.25882
vn 0.96593 -0.00000 -0.25882
vn 0.86603 -0.00000 -0.50000
vn 0.86603 -0.00000 -0.50000
vn 0.70711 -0.00000 -0.70711
vn 0.70711 -0.00000 -0.70711
vn 0.50000 -0.00000 -0.86603
vn 0.50000 -0.00000 -0.86603
vn 0.25882 -0.00000 -0.96593
vn 0.25882 -0.00000 -0.96593
vn 0.00000 -0.00000 -1.00000
vn 0.00000 -0.00000 -1.00000
vn -0.25882 -0.00000 -0.96593
vn -0.25882 -0.00000 -0.96593
vn -0.50000 -0.00000 -0.86603
vn -0.50000 -0.00000 -0.86603
vn -0.70711 -0.00000 -0.70711
vn -0.70711 -0.00000 -0.70711
vn -0.86603 -0.00000 -0.50000
vn -0.86603 -0.00000 -0.50000
vn -0.96593 -0.00000 -0.25882
vn -0.96593 -0.00000 -0.25882
vn -1.00000 -0.00000 -0.00000
vn -1.00000 -0.00000 -0.00000
vn -0.96593 0.00000 0.25882
vn -0.96593 0.00000 0.25882
vn -0.86603 0.00000 0.50000
vn -0.86603 0.00000 0.50000
vn -0.70711 0.00000 0.70711
vn -0.70711 0.00000 0.70711
vn -0.50000 0.00000 0.86603
vn -0.50000 0.00000 0.86603
vn -0.25882 0.00000 0.96593
vn -0.25882 0.00000 0.96593
vn -0.00000 0.00000 1.00000
vn -0.00000 0.00000 1.00000
vn 0.25882 0.00000 0.96593
vn 0.25882 0.00000 0.96593
vn 0.50000 0.00000 0.86603
vn 0.50000 0.00000 0.86603
vn 0.70711 0.00000 0.70711
vn 0.70711 0.00000 0.70711
vn 0.86603 0.00000 0.50000
vn 0.86603 0.00000 0.50000
vn 0.96593 0.00000 0.25882
vn 0.96593 0.00000 0.25882
vn 1.00000 0.00000 0.00000
vn 1.00000 0.00000 0.00000
vn 0.00000 -1.00000 0.00000
vn 0.00000 -1.00000 0.00000
vn 0.00000 -1.00000 0.00000
vn 0.00000 -1.00000 0.00000
vn 0.00000 -1.00000 0.00000
vn 0.00000 -1.00000 0.00000
vn 0.00000 -1.00000 0.00000
vn 0.00000 -1.00000 0.00000
vn 0.00000 -1.00000 0.00000
vn 0.00000 -1.00000 0.00000
vn 0.00000 -1.00000 0.00000
vn 0.00000 -1.00000 0.00000
vn 0.00000 -1.00000 0.00000
vn 0.00000 -1.00000 0.00000
vn 0.00000 -1.00000 0.00000
vn 0.00000 -1.00000 0.00000
vn 0.00000 -1.00000 0.00000
vn 0.00000 -1.00000 0.00000
vn 0.00000 -1.00000 0.00000
vn 0.00000 -1.00000 0.00000
vn 0.00000 -1.00000 0.00000
vn 0.00000 -1.00000 0.00000
vn 0.00000 -1.00000 0.00000
vn 0.00000 -1.00000 0.00000
vn 0.00000 -1.00000 0.00000
vn 0.00000 1.00000 -0.00000
vn 0.00000 1.00000 -0.00000
vn 0.00000 1.00000 -0.00000
vn 0.00000 1.00000 -0.00000
vn 0.00000 1.00000 -0.00000
vn 0.00000 1.00000 -0.00000
vn 0.00000 1.00000 -0.00000
vn 0.00000 1.00000 -0.00000
vn 0.00000 1.00000 -0.00000
vn 0.00000 1.00000 -0.00000
vn 0.00000 1.00000 -0.00000
vn 0.00000 1.00000 -0.00000
vn 0.00000 1.00000 -0.00000
vn 0.00000 1.00000 -0.00000
vn 0.00000 1.00000 -0.00000
vn 0.00000 1.00000 -0.00000
vn 0.00000 1.00000 -0.00000
vn 0.00000 1.00000 -0.00000
vn 0.00000 1.00000 -0.00000
vn 0.00000 1.00000 -0.00000
vn 0.00000 1.00000 -0.00000
vn 0.00000 1.00000 -0.00000
vn 0.00000 1.00000 -0.00000
vn 0.00000 1.00000 -0.00000
vn 0.00000 1.00000 -0.00000

# mesh-4: faces
usemtl MATERIAL4
f 337/337/337 339/339/339 340/340/340
f 337/337/337 340/340/340 338/338/338
f 339/339/339 341/341/341 342/342/342
f 339/339/339 342/342/342 340/340/340
f 341/341/341 343/343/343 344/344/344
f 341/341/341 344/344/344 342/342/342
f 343/343/343 345/345/345 346/346/346
f 343/343/343 346/346/346 344/344/344
f 345/345/345 347/347/347 348/348/348
f 345/345/345 348/348/348 346/346/346
f 347/347/347 349/349/349 350/350/350
f 347/347/347 350/350/350 348/348/348
f 349/349/349 351/351/351 352/352/352
f 349/349/349 352/352/352 350/350/350
f 351/351/351 353/353/353 354/354/354
f 351/351/351 354/354/354 352/352/352
f 353/353/353 355/355/355 356/356/356
f 353/353/353 356/356/356 354/354/354
f 355/355/355 357/357/357 358/358/358
f 355/355/355 358/358/358 356/356/356
f 357/357/357 359/359/359 360/360/360
f 357/357/357 360/360/360 358/358/358
f 359/359/359 361/361/361 362/362/362
f 359/359/359 362/362/362 360/360/360
f 361/361/361 363/363/363 364/364/364
f 361/361/361 364/364/364 362/362/362
f 363/363/363 365/365/365 366/366/366
f 363/363/363 366/366/366 364/364/364
f 365/365/365 367/367/367 368/368/368
f 365/365/365 368/368/368 366/366/366
f 367/367/367 369/369/369 370/370/370
f 367/367/367 370/370/370 368/368/368
f 369/369/369 371/371/371 372/372/372
f 369/369/369 372/372/372 370/370/370
f 371/371/371 373/373/373 374/374/374
f 371/371/371 374/374/374 372/372/372
f 373/373/373 375/375/375 376/376/376
f 373/373/373 376/376/376 374/374/374
f 375/375/375 377/377/377 378/378/378
f 375/375/375 378/378/378 376/376/376
f 377/377/377 379/379/379 380/380/380
f 377/377/377 380/380/380 378/378/378
f 379/379/379 381/381/381 382/382/382
f 379/379/379 382/382/382 380/380/380
f 381/381/381 383/383/383 384/384/384
f 381/381/381 384/384/384 382/382/382
f 383/383/383 385/385/385 386/386/386
f 383/383/383 386/386/386 384/384/384
f 387/387/387 388/388/388 389/389/389
f 387/387/387 389/389/389 390/390/390
f 387/387/387 390/390/390 391/391/391
f 387/387/387 391/391/391 392/392/392
f 387/387/387 392/392/392 393/393/393
f 387/387/387 393/393/393 394/394/394
f 387/387/387 394/394/394 395/395/395
f 387/387/387 395/395/395 396/396/396
f 387/387/387 396/396/396 397/397/397
f 387/387/387 397/397/397 398/398/398
f 387/387/387 398/398/398 399/399/399
f 387/387/387 399/399/399 400/400/400
f 387/387/387 400/400/400 401/401/401
f 387/387/387 401/401/401 402/402/402
f 387/387/387 402/402/402 403/403/403
f 387/387/387 403/403/403 404/404/404
f 387/387/387 404/404/404 405/405/405
f 387/387/387 405/405/405 406/406/406
f 387/387/387 406/406/406 407/407/407
f 387/387/387 407/407/407 408/408/408
f 387/387/387 408/408/408 409/409/409
f 387/387/387 409/409/409 410/410/410
f 387/387/387 410/410/410 411/411/411
f 387/387/387 411/411/411 388/388/388
f 412/412/412 413/413/413 414/414/414
f 412/412/412 414/414/414 415/415/415
f 412/412/412 415/415/415 416/416/416
f 412/412/412 416/416/416 417/417/417
f 412/412/412 417/417/417 418/418/418
f 412/412/412 418/418/418 419/419/419
f 412/412/412 419/419/419 420/420/420
f 412/412/412 420/420/420 421/421/421
f 412/412/412 421/421/421 422/422/422
f 412/412/412 422/422/422 423/423/423
f 412/412/412 423/423/423 424/424/424
f 412/412/412 424/424/424 425/425/425
f 412/412/412 425/425/425 426/426/426
f 412/412/412 426/426/426 427/427/427
f 412/412/412 427/427/427 428/428/428
f 412/412/412 428/428/428 429/429/429
f 412/412/412 429/429/429 430/430/430
f 412/412/412 430/430/430 431/431/431
f 412/412/412 431/431/431 432/432/432
f 412/412/412 432/432/432 433/433/433
f 412/412/412 433/433/433 434/434/434
f 412/412/412 434/434/434 435/435/435
f 412/412/412 435/435/435 436/436/436
f 412/412/412 436/436/436 413/413/413

# mesh-5: vertices
v 0.00400 1.40000 0.15000
v 0.00400 36.40000 0.15000
v 0.00370 1.40000 0.14847
v 0.00370 36.40000 0.14847
v 0.00283 1.40000 0.14717
v 0.00283 36.40000 0.14717
v 0.00153 1.40000 0.14630
v 0.00153 36.40000 0.14630
v 0.00000 1.40000 0.14600
v 0.00000 36.40000 0.14600
v -0.00153 1.40000 0.14630
v -0.00153 36.40000 0.14630
v -0.00283 1.40000 0.14717
v -0.00283 36.40000 0.14717
v -0.00370 1.40000 0.14847
v -0.00370 36.40000 0.14847
v -0.00400 1.40000 0.15000
v -0.00400 36.40000 0.15000
v -0.00370 1.40000 0.15153
v -0.00370 36.40000 0.15153
v -0.00283 1.40000 0.15283
v -0.00283 36.40000 0.15283
v -0.00153 1.40000 0.15370
v -0.00153 36.40000 0.15370
v -0.00000 1.40000 0.15400
v -0.00000 36.40000 0.15400
v 0.00153 1.40000 0.15370
v 0.00153 36.40000 0.15370
v 0.00283 1.40000 0.15283
v 0.00283 36.40000 0.15283
v 0.00370 1.40000 0.15153
v 0.00370 36.40000 0.15153
v 0.00400 1.40000 0.15000
v 0.00400 36.40000 0.15000
v 0.00000 1.40000 0.15000
v 0.00400 1.40000 0.15000
v 0.00370 1.40000 0.15153
v 0.00283 1.40000 0.15283
v 0.00153 1.40000 0.15370
v 0.00000 1.40000 0.15400
v -0.00153 1.40000 0.15370
v -0.00283 1.40000 0.15283
v -0.00370 1.40000 0.15153
v -0.00400 1.40000 0.15000
v -0.00370 1.40000 0.14847
v -0.00283 1.40000 0.14717
v -0.00153 1.40000 0.14630
v -0.00000 1.40000 0.14600
v 0.00153 1.40000 0.14630
v 0.00283 1.40000 0.14717
v 0.00370 1.40000 0.14847
v 0.00000 36.40000 0.15000
v 0.00400 36.40000 0.15000
v 0.00370 36.40000 0.14847
v 0.00283 36.40000 0.14717
v 0.00153 36.40000 0.14630
v 0.00000 36.40000 0.14600
v -0.00153 36.40000 0.14630
v -0.00283 36.40000 0.14717
v -0.00370 36.40000 0.14847
v -0.00400 36.40000 0.15000
v -0.00370 36.40000 0.15153
v -0.00283 36.40000 0.15283
v -0.00153 36.40000 0.15370
v -0.00000 36.40000 0.15400
v 0.00153 36.40000 0.15370
v 0.00283 36.40000 0.15283
v 0.00370 36.40000 0.15153

# mesh-5: normals
vn 1.00000 0.00000 0.00000
vn 1.00000 0.00000 0.00000
vn 0.92388 -0.00000 -0.38268
vn 0.92388 -0.00000 -0.38268
vn 0.70711 -0.00000 -0.70711
vn 0.70711 -0.00000 -0.70711
vn 0.38268 -0.00000 -0.92388
vn 0.38268 -0.00000 -0.92388
vn 0.00000 -0.00000 -1.00000
vn 0.00000 -0.00000 -1.00000
vn -0.38268 -0.00000 -0.92388
vn -0.38268 -0.00000 -0.92388
vn -0.70711 -0.00000 -0.70711
vn -0.70711 -0.00000 -0.70711
vn -0.92388 -0.00000 -0.38268
vn -0.92388 -0.00000 -0.38268
vn -1.00000 -0.00000 -0.00000
vn -1.00000 -0.00000 -0.00000
vn -0.92388 0.00000 0.38268
vn -0.92388 0.00000 0.38268
vn -0.70711 0.00000 0.70711
vn -0.70711 0.00000 0.70711
vn -0.38268 0.00000 0.92388
vn -0.38268 0.00000 0.92388
vn -0.00000 0.00000 1.00000
vn -0.00000 0.00000 1.00000
vn 0.38268 0.00000 0.92388
vn 0.38268 0.00000 0.92388
vn 0.70711 0.00000 0.70711
vn 0.70711 0.00000 0.70711
vn 0.92388 0.00000 0.38268
vn 0.92388 0.00000 0.38268
vn 1.00000 0.00000 0.00000
vn 1.00000 0.00000 0.00000
vn 0.00000 -1.00000 0.00000
vn 0.00000 -1.00000 0.00000
vn 0.00000 -1.00000 0.00000
vn 0.00000 -1.00000 0.00000
vn 0.00000 -1.00000 0.00000
vn 0.00000 -1.00000 0.00000
vn 0.00000 -1.00000 0.00000
vn 0.00000 -1.00000 0.00000
vn 0.00000 -1.00000 0.00000
vn 0.00000 -1.00000 0.00000
vn 0.00000 -1.00000 0.00000
vn 0.00000 -1.00000 0.00000
vn 0.00000 -1.00000 0.00000
vn 0.00000 -1.00000 0.00000
vn 0.00000 -1.00000 0.00000
vn 0.00000 -1.00000 0.00000
vn 0.00000 -1.00000 0.00000
vn 0.00000 1.00000 -0.00000
vn 0.00000 1.00000 -0.00000
vn 0.00000 1.00000 -0.00000
vn 0.00000 1.00000 -0.00000
vn 0.00000 1.00000 -0.00000
vn 0.00000 1.00000 -0.00000
vn 0.00000 1.00000 -0.00000
vn 0.00000 1.00000 -0.00000
vn 0.00000 1.00000 -0.00000
vn 0.00000 1.00000 -0.00000
vn 0.00000 1.00000 -0.00000
vn 0.00000 1.00000 -0.00000
vn 0.00000 1.00000 -0.00000
vn 0.00000 1.00000 -0.00000
vn 0.00000 1.00000 -0.00000
vn 0.00000 1.00000 -0.00000
vn 0.00000 1.00000 -0.00000

# mesh-5: faces
usemtl MATERIAL5
f 437/437/437 439/439/439 440/440/440
f 437/437/437 440/440/440 438/438/438
f 439/439/439 441/441/441 442/442/442
f 439/439/439 442/442/442 440/440/440
f 441/441/441 443/443/443 444/444/444
f 441/441/441 444/444/444 442/442/442
f 443/443/443 445/445/445 446/446/446
f 443/443/443 446/446/446 444/444/444
f 445/445/445 447/447/447 448/448/448
f 445/445/445 448/448/448 446/446/446
f 447/447/447 449/449/449 450/450/450
f 447/447/447 450/450/450 448/448/448
f 449/449/449 451/451/451 452/452/452
f 449/449/449 452/452/452 450/450/450
f 451/451/451 453/453/453 454/454/454
f 451/451/451 454/454/454 452/452/452
f 453/453/453 455/455/455 456/456/456
f 453/453/453 456/456/456 454/454/454
f 455/455/455 457/457/457 458/458/458
f 455/455/455 458/458/458 456/456/456
f 457/457/457 459/459/459 460/460/460
f 457/457/457 460/460/460 458/458/458
f 459/459/459 461/461/461 462/462/462
f 459/459/459 462/462/462 460/460/460
f 461/461/461 463/463/463 464/464/464
f 461/461/461 464/464/464 462/462/462
f 463/463/463 465/465/465 466/466/466
f 463/463/463 466/466/466 464/464/464
f 465/465/465 467/467/467 468/468/468
f 465/465/465 468/468/468 466/466/466
f 467/467/467 469/469/469 470/470/470
f 467/467/467 470/470/470 468/468/468
f 471/471/471 472/472/472 473/473/473
f 471/471/471 473/473/473 474/474/474
f 471/471/471 474/474/474 475/475/475
f 471/471/471 475/475/475 476/476/476
f 471/471/471 476/476/476 477/477/477
f 471/471/471 477/477/477 478/478/478
f 471/471/471 478/478/478 479/479/479
f 471/471/471 479/479/479 480/480/480
f 471/471/471 480/480/480 481/481/481
f 471/471/471 481/481/481 482/482/482
f 471/471/471 482/482/482 483/483/483
f 471/471/471 483/483/483 484/484/484
f 471/471/471 484/484/484 485/485/485
f 471/471/471 485/485/485 486/486/486
f 471/471/471 486/486/486 487/487/487
f 471/471/471 487/487/487 472/472/472
f 488/488/488 489/489/489 490/490/490
f 488/488/488 490/490/490 491/491/491
f 488/488/488 491/491/491 492/492/492
f 488/488/488 492/492/492 493/493/493
f 488/488/488 493/493/493 494/494/494
f 488/488/488 494/494/494 495/495/495
f 488/488/488 495/495/495 496/496/496
f 488/488/488 496/496/496 497/497/497
f 488/488/488 497/497/497 498/498/498
f 488/488/488 498/498/498 499/499/499
f 488/488/488 499/499/499 500/500/500
f 488/488/488 500/500/500 501/501/501
f 488/488/488 501/501/501 502/502/502
f 488/488/488 502/502/502 503/503/503
f 488/488/488 503/503/503 504/504/504
f 488/488/488 504/504/504 489/489/489

# mesh-6: vertices
v 0.00000 36.40000 0.11000
v 0.00780 36.40000 0.11077
v 0.01531 36.40000 0.11304
v 0.02222 36.40000 0.11674
v 0.02828 36.40000 0.12172
v 0.03326 36.40000 0.12778
v 0.03696 36.40000 0.13469
v 0.03923 36.40000 0.14220
v 0.04000 36.40000 0.15000
v 0.03923 36.40000 0.15780
v 0.03696 36.40000 0.16531
v 0.03326 36.40000 0.17222
v 0.02828 36.40000 0.17828
v 0.02222 36.40000 0.18326
v 0.01531 36.40000 0.18696
v 0.00780 36.40000 0.18923
v 0.00000 36.40000 0.19000
v 0.00000 36.40000 0.11000
v 0.00721 36.40299 0.11077
v 0.01414 36.40586 0.11304
v 0.02053 36.40850 0.11674
v 0.02613 36.41082 0.12172
v 0.03073 36.41273 0.12778
v 0.03414 36.41414 0.13469
v 0.03625 36.41501 0.14220
v 0.03696 36.41531 0.15000
v 0.03625 36.41501 0.15780
v 0.03414 36.41414 0.16531
v 0.03073 36.41273 0.17222
v 0.02613 36.41082 0.17828
v 0.02053 36.40850 0.18326
v 0.01414 36.40586 0.18696
v 0.00721 36.40299 0.18923
v 0.00000 36.40000 0.19000
v 0.00000 36.40000 0.11000
v 0.00552 36.40552 0.11077
v 0.01082 36.41082 0.11304
v 0.01571 36.41571 0.11674
v 0.02000 36.42000 0.12172
v 0.02352 36.42352 0.12778
v 0.02613 36.42613 0.13469
v 0.02774 36.42774 0.14220
v 0.02828 36.42828 0.15000
v 0.02774 36.42774 0.15780
v 0.02613 36.42613 0.16531
v 0.02352 36.42352 0.17222
v 0.02000 36.42000 0.17828
v 0.01571 36.41571 0.18326
v 0.01082 36.41082 0.18696
v 0.00552 36.40552 0.18923
v 0.00000 36.40000 0.19000
v 0.00000 36.40000 0.11000
v 0.00299 36.40721 0.11077
v 0.00586 36.41414 0.11304
v 0.00850 36.42053 0.11674
v 0.01082 36.42613 0.12172
v 0.01273 36.43073 0.12778
v 0.01414 36.43414 0.13469
v 0.01501 36.43625 0.14220
v 0.01531 36.43696 0.15000
v 0.01501 36.43625 0.15780
v 0.01414 36.43414 0.16531
v 0.01273 36.43073 0.17222
v 0.01082 36.42613 0.17828
v 0.00850 36.42053 0.18326
v 0.00586 36.41414 0.18696
v 0.00299 36.40721 0.18923
v 0.00000 36.40000 0.19000
v 0.00000 36.40000 0.11000
v 0.00000 36.40780 0.11077
v 0.00000 36.41531 0.11304
v 0.00000 36.42222 0.11674
v 0.00000 36.42828 0.12172
v 0.00000 36.43326 0.12778
v 0.00000 36.43696 0.13469
v 0.00000 36.43923 0.14220
v 0.00000 36.44000 0.15000
v 0.00000 36.43923 0.15780
v 0.00000 36.43696 0.16531
v 0.00000 36.43326 0.17222
v 0.00000 36.42828 0.17828
v 0.00000 36.42222 0.18326
v 0.00000 36.41531 0.18696
v 0.00000 36.40780 0.18923
v 0.00000 36.40000 0.19000
v -0.00000 36.40000 0.11000
v -0.00299 36.40721 0.11077
v -0.00586 36.41414 0.11304
v -0.00850 36.42053 0.11674
v -0.01082 36.42613 0.12172
v -0.01273 36.43073 0.12778
v -0.01414 36.43414 0.13469
v -0.01501 36.43625 0.14220
v -0.01531 36.43696 0.15000
v -0.01501 36.43625 0.15780
v -0.01414 36.43414 0.16531
v -0.01273 36.43073 0.17222
v -0.01082 36.42613 0.17828
v -0.00850 36.42053 0.18326
v -0.00586 36.41414 0.18696
v -0.00299 36.40721 0.18923
v -0.00000 36.40000 0.19000
v -0.00000 36.40000 0.11000
v -0.00552 36.40552 0.11077
v -0.01082 36.41082 0.11304
v -0.01571 36.41571 0.11674
v -0.02000 36.42000 0.12172
v -0.02352 36.42352 0.12778
v -0.02613 36.42613 0.13469
v -0.02774 36.42774 0.14220
v -0.02828 36.42828 0.15000
v -0.02774 36.42774 0.15780
v -0.02613 36.42613 0.16531
v -0.02352 36.42352 0.17222
v -0.02000 36.42000 0.17828
v -0.01571 36.41571 0.18326
v -0.01082 36.41082 0.18696
v -0.00552 36.40552 0.18923
v -0.00000 36.40000 0.19000
v -0.00000 36.40000 0.11000
v -0.00721 36.40299 0.11077
v -0.01414 36.40586 0.11304
v -0.02053 36.40850 0.11674
v -0.02613 36.41082 0.12172
v -0.03073 36.41273 0.12778
v -0.03414 36.41414 0.13469
v -0.03625 36.41501 0.14220
v -0.03696 36.41531 0.15000
v -0.03625 36.41501 0.15780
v -0.03414 36.41414 0.16531
v -0.03073 36.41273 0.17222
v -0.02613 36.41082 0.17828
v -0.02053 36.40850 0.18326
v -0.01414 36.40586 0.18696
v -0.00721 36.40299 0.18923
v -0.00000 36.40000 0.19000
v -0.00000 36.40000 0.11000
v -0.00780 36.40000 0.11077
v -0.01531 36.40000 0.11304
v -0.02222 36.40000 0.11674
v -0.02828 36.40000 0.12172
v -0.03326 36.40000 0.12778
v -0.03696 36.40000 0.13469
v -0.03923 36.40000 0.14220
v -0.04000 36.40000 0.15000
v -0.03923 36.40000 0.15780
v -0.03696 36.40000 0.16531
v -0.03326 36.40000 0.17222
v -0.02828 36.40000 0.17828
v -0.02222 36.40000 0.18326
v -0.01531 36.40000 0.18696
v -0.00780 36.40000 0.18923
v -0.00000 36.40000 0.19000
v -0.00000 36.40000 0.11000
v -0.00721 36.39701 0.11077
v -0.01414 36.39414 0.11304
v -0.02053 36.39150 0.11674
v -0.02613 36.38918 0.12172
v -0.03073 36.38727 0.12778
v -0.03414 36.38586 0.13469
v -0.03625 36.38499 0.14220
v -0.03696 36.38469 0.15000
v -0.03625 36.38499 0.15780
v -0.03414 36.38586 0.16531
v -0.03073 36.38727 0.17222
v -0.02613 36.38918 0.17828
v -0.02053 36.39150 0.18326
v -0.01414 36.39414 0.18696
v -0.00721 36.39701 0.18923
v -0.00000 36.40000 0.19000
v -0.00000 36.40000 0.11000
v -0.00552 36.39448 0.11077
v -0.01082 36.38918 0.11304
v -0.01571 36.38429 0.11674
v -0.02000 36.38000 0.12172
v -0.02352 36.37648 0.12778
v -0.02613 36.37387 0.13469
v -0.02774 36.37226 0.14220
v -0.02828 36.37172 0.15000
v -0.02774 36.37226 0.15780
v -0.02613 36.37387 0.16531
v -0.02352 36.37648 0.17222
v -0.02000 36.38000 0.17828
v -0.01571 36.38429 0.18326
v -0.01082 36.38918 0.18696
v -0.00552 36.39448 0.18923
v -0.00000 36.40000 0.19000
v -0.00000 36.40000 0.11000
v -0.00299 36.39279 0.11077
v -0.00586 36.38586 0.11304
v -0.00850 36.37947 0.11674
v -0.01082 36.37387 0.12172
v -0.01273 36.36927 0.12778
v -0.01414 36.36586 0.13469
v -0.01501 36.36375 0.14220
v -0.01531 36.36304 0.15000
v -0.01501 36.36375 0.15780
v -0.01414 36.36586 0.16531
v -0.01273 36.36927 0.17222
v -0.01082 36.37387 0.17828
v -0.00850 36.37947 0.18326
v -0.00586 36.38586 0.18696
v -0.00299 36.39279 0.18923
v -0.00000 36.40000 0.19000
v -0.00000 36.40000 0.11000
v -0.00000 36.39220 0.11077
v -0.00000 36.38469 0.11304
v -0.00000 36.37778 0.11674
v -0.00000 36.37172 0.12172
v -0.00000 36.36674 0.12778
v -0.00000 36.36304 0.13469
v -0.00000 36.36077 0.14220
v -0.00000 36.36000 0.15000
v -0.00000 36.36077 0.15780
v -0.00000 36.36304 0.16531
v -0.00000 36.36674 0.17222
v -0.00000 36.37172 0.17828
v -0.00000 36.37778 0.18326
v -0.00000 36.38469 0.18696
v -0.00000 36.39220 0.18923
v -0.00000 36.40000 0.19000
v 0.00000 36.40000 0.11000
v 0.00299 36.39279 0.11077
v 0.00586 36.38586 0.11304
v 0.00850 36.37947 0.11674
v 0.01082 36.37387 0.12172
v 0.01273 36.36927 0.12778
v 0.01414 36.36586 0.13469
v 0.01501 36.36375 0.14220
v 0.01531 36.36304 0.15000
v 0.01501 36.36375 0.15780
v 0.01414 36.36586 0.16531
v 0.01273 36.36927 0.17222
v 0.01082 36.37387 0.17828
v 0.00850 36.37947 0.18326
v 0.00586 36.38586 0.18696
v 0.00299 36.39279 0.18923
v 0.00000 36.40000 0.19000
v 0.00000 36.40000 0.11000
v 0.00552 36.39448 0.11077
v 0.01082 36.38918 0.11304
v 0.01571 36.38429 0.11674
v 0.02000 36.38000 0.12172
v 0.02352 36.37648 0.12778
v 0.02613 36.37387 0.13469
v 0.02774 36.37226 0.14220
v 0.02828 36.37172 0.15000
v 0.02774 36.37226 0.15780
v 0.02613 36.37387 0.16531
v 0.02352 36.37648 0.17222
v 0.02000 36.38000 0.17828
v 0.01571 36.38429 0.18326
v 0.01082 36.38918 0.18696
v 0.00552 36.39448 0.18923
v 0.00000 36.40000 0.19000
v 0.00000 36.40000 0.11000
v 0.00721 36.39701 0.11077
v 0.01414 36.39414 0.11304
v 0.02053 36.39150 0.11674
v 0.02613 36.38918 0.12172
v 0.03073 36.38727 0.12778
v 0.03414 36.38586 0.13469
v 0.03625 36.38499 0.14220
v 0.03696 36.38469 0.15000
v 0.03625 36.38499 0.15780
v 0.03414 36.38586 0.16531
v 0.03073 36.38727 0.17222
v 0.02613 36.38918 0.17828
v 0.02053 36.39150 0.18326
v 0.01414 36.39414 0.18696
v 0.00721 36.39701 0.18923
v 0.00000 36.40000 0.19000
v 0.00000 36.40000 0.11000
v 0.00780 36.40000 0.11077
v 0.01531 36.40000 0.11304
v 0.02222 36.40000 0.11674
v 0.02828 36.40000 0.12172
v 0.03326 36.40000 0.12778
v 0.03696 36.40000 0.13469
v 0.03923 36.40000 0.14220
v 0.04000 36.40000 0.15000
v 0.03923 36.40000 0.15780
v 0.03696 36.40000 0.16531
v 0.03326 36.40000 0.17222
v 0.02828 36.40000 0.17828
v 0.02222 36.40000 0.18326
v 0.01531 36.40000 0.18696
v 0.00780 36.40000 0.18923
v 0.00000 36.40000 0.19000

# mesh-6: normals
vn 0.00000 0.00000 -1.00000
vn 0.19509 0.00000 -0.98079
vn 0.38268 0.00000 -0.92388
vn 0.55557 0.00000 -0.83147
vn 0.70711 0.00000 -0.70711
vn 0.83147 0.00000 -0.55557
vn 0.92388 0.00000 -0.38268
vn 0.98079 0.00000 -0.19509
vn 1.00000 0.00000 0.00000
vn 0.98079 0.00000 0.19509
vn 0.92388 0.00000 0.38268
vn 0.83147 0.00000 0.55557
vn 0.70711 0.00000 0.70711
vn 0.55557 0.00000 0.83147
vn 0.38268 0.00000 0.92388
vn 0.19509 0.00000 0.98079
vn 0.00000 0.00000 1.00000
vn 0.00000 0.00000 -1.00000
vn 0.18024 0.07466 -0.98079
vn 0.35355 0.14645 -0.92388
vn 0.51328 0.21261 -0.83147
vn 0.65328 0.27060 -0.70711
vn 0.76818 0.31819 -0.55557
vn 0.85355 0.35355 -0.38268
vn 0.90613 0.37533 -0.19509
vn 0.92388 0.38268 0.00000
vn 0.90613 0.37533 0.19509
vn 0.85355 0.35355 0.38268
vn 0.76818 0.31819 0.55557
vn 0.65328 0.27060 0.70711
vn 0.51328 0.21261 0.83147
vn 0.35355 0.14645 0.92388
vn 0.18024 0.07466 0.98079
vn 0.00000 0.00000 1.00000
vn 0.00000 0.00000 -1.00000
vn 0.13795 0.13795 -0.98079
vn 0.27060 0.27060 -0.92388
vn 0.39285 0.39285 -0.83147
vn 0.50000 0.50000 -0.70711
vn 0.58794 0.58794 -0.55557
vn 0.65328 0.65328 -0.38268
vn 0.69352 0.69352 -0.19509
vn 0.70711 0.70711 0.00000
vn 0.69352 0.69352 0.19509
vn 0.65328 0.65328 0.38268
vn 0.58794 0.58794 0.55557
vn 0.50000 0.50000 0.70711
vn 0.39285 0.39285 0.83147
vn 0.27060 0.27060 0.92388
vn 0.13795 0.13795 0.98079
vn 0.00000 0.00000 1.00000
vn 0.00000 0.00000 -1.00000
vn 0.07466 0.18024 -0.98079
vn 0.14645 0.35355 -0.92388
vn 0.21261 0.51328 -0.83147
vn 0.27060 0.65328 -0.70711
vn 0.31819 0.76818 -0.55557
vn 0.35355 0.85355 -0.38268
vn 0.37533 0.90613 -0.19509
vn 0.38268 0.92388 0.00000
vn 0.37533 0.90613 0.19509
vn 0.35355 0.85355 0.38268
vn 0.31819 0.76818 0.55557
vn 0.27060 0.65328 0.70711
vn 0.21261 0.51328 0.83147
vn 0.14645 0.35355 0.92388
vn 0.07466 0.18024 0.98079
vn 0.00000 0.00000 1.00000
vn 0.00000 0.00000 -1.00000
vn 0.00000 0.19509 -0.98079
vn 0.00000 0.38268 -0.92388
vn 0.00000 0.55557 -0.83147
vn 0.00000 0.70711 -0.70711
vn 0.00000 0.83147 -0.55557
vn 0.00000 0.92388 -0.38268
vn 0.00000 0.98079 -0.19509
vn 0.00000 1.00000 0.00000
vn 0.00000 0.98079 0.19509
vn 0.00000 0.92388 0.38268
vn 0.00000 0.83147 0.55557
vn 0.00000 0.70711 0.70711
vn 0.00000 0.55557 0.83147
vn 0.00000 0.38268 0.92388
vn 0.00000 0.19509 0.98079
vn 0.00000 0.00000 1.00000
vn -0.00000 0.00000 -1.00000
vn -0.07466 0.18024 -0.98079
vn -0.14645 0.35355 -0.92388
vn -0.21261 0.51328 -0.83147
vn -0.27060 0.65328 -0.70711
vn -0.31819 0.76818 -0.55557
vn -0.35355 0.85355 -0.38268
vn -0.37533 0.90613 -0.19509
vn -0.38268 0.92388 0.00000
vn -0.37533 0.90613 0.19509
vn -0.35355 0.85355 0.38268
vn -0.31819 0.76818 0.55557
vn -0.27060 0.65328 0.70711
vn -0.21261 0.51328 0.83147
vn -0.14645 0.35355 0.92388
vn -0.07466 0.18024 0.98079
vn -0.00000 0.00000 1.00000
vn -0.00000 0.00000 -1.00000
vn -0.13795 0.13795 -0.98079
vn -0.27060 0.27060 -0.92388
vn -0.39285 0.39285 -0.83147
vn -0.50000 0.50000 -0.70711
vn -0.58794 0.58794 -0.55557
vn -0.65328 0.65328 -0.38268
vn -0.69352 0.69352 -0.19509
vn -0.70711 0.70711 0.00000
vn -0.69352 0.69352 0.19509
vn -0.65328 0.65328 0.38268
vn -0.58794 0.58794 0.55557
vn -0.50000 0.50000 0.70711
vn -0.39285 0.39285 0.83147
vn -0.27060 0.27060 0.92388
vn -0.13795 0.13795 0.98079
vn -0.00000 0.00000 1.00000
vn -0.00000 0.00000 -1.00000
vn -0.18024 0.07466 -0.98079
vn -0.35355 0.14645 -0.92388
vn -0.51328 0.21261 -0.83147
vn -0.65328 0.27060 -0.70711
vn -0.76818 0.31819 -0.55557
vn -0.85355 0.35355 -0.38268
vn -0.90613 0.37533 -0.19509
vn -0.92388 0.38268 0.00000
vn -0.90613 0.37533 0.19509
vn -0.85355 0.35355 0.38268
vn -0.76818 0.31819 0.55557
vn -0.65328 0.27060 0.70711
vn -0.51328 0.21261 0.83147
vn -0.35355 0.14645 0.92388
vn -0.18024 0.07466 0.98079
vn -0.00000 0.00000 1.00000
vn -0.00000 0.00000 -1.00000
vn -0.19509 0.00000 -0.98079
vn -0.38268 0.00000 -0.92388
vn -0.55557 0.00000 -0.83147
vn -0.70711 0.00000 -0.70711
vn -0.83147 0.00000 -0.55557
vn -0.92388 0.00000 -0.38268
vn -0.98079 0.00000 -0.19509
vn -1.00000 0.00000 0.00000
vn -0.98079 0.00000 0.19509
vn -0.92388 0.00000 0.38268
vn -0.83147 0.00000 0.55557
vn -0.70711 0.00000 0.70711
vn -0.55557 0.00000 0.83147
vn -0.38268 0.00000 0.92388
vn -0.19509 0.00000 0.98079
vn -0.00000 0.00000 1.00000
vn -0.00000 -0.00000 -1.00000
vn -0.18024 -0.07466 -0.98079
vn -0.35355 -0.14645 -0.92388
vn -0.51328 -0.21261 -0.83147
vn -0.65328 -0.27060 -0.70711
vn -0.76818 -0.31819 -0.55557
vn -0.85355 -0.35355 -0.38268
vn -0.90613 -0.37533 -0.19509
vn -0.92388 -0.38268 0.00000
vn -0.90613 -0.37533 0.19509
vn -0.85355 -0.35355 0.38268
vn -0.76818 -0.31819 0.55557
vn -0.65328 -0.27060 0.70711
vn -0.51328 -0.21261 0.83147
vn -0.35355 -0.14645 0.92388
vn -0.18024 -0.07466 0.98079
vn -0.00000 -0.00000 1.00000
vn -0.00000 -0.00000 -1.00000
vn -0.13795 -0.13795 -0.98079
vn -0.27060 -0.27060 -0.92388
vn -0.39285 -0.39285 -0.83147
vn -0.50000 -0.50000 -0.70711
vn -0.58794 -0.58794 -0.55557
vn -0.65328 -0.65328 -0.38268
vn -0.69352 -0.69352 -0.19509
vn -0.70711 -0.70711 0.00000
vn -0.69352 -0.69352 0.19509
vn -0.65328 -0.65328 0.38268
vn -0.58794 -0.58794 0.55557
vn -0.50000 -0.50000 0.70711
vn -0.39285 -0.39285 0.83147
vn -0.27060 -0.27060 0.92388
vn -0.13795 -0.13795 0.98079
vn -0.00000 -0.00000 1.00000
vn -0.00000 -0.00000 -1.00000
vn -0.07466 -0.18024 -0.98079
vn -0.14645 -0.35355 -0.92388
vn -0.21261 -0.51328 -0.83147
vn -0.27060 -0.65328 -0.70711
vn -0.31819 -0.76818 -0.55557
vn -0.35355 -0.85355 -0.38268
vn -0.37533 -0.90613 -0.19509
vn -0.38268 -0.92388 0.00000
vn -0.37533 -0.90613 0.19509
vn -0.35355 -0.85355 0.38268
vn -0.31819 -0.76818 0.55557
vn -0.27060 -0.65328 0.70711
vn -0.21261 -0.51328 0.83147
vn -0.14645 -0.35355 0.92388
vn -0.07466 -0.18024 0.98079
vn -0.00000 -0.00000 1.00000
vn -0.00000 -0.00000 -1.00000
vn -0.00000 -0.19509 -0.98079
vn -0.00000 -0.38268 -0.92388
vn -0.00000 -0.55557 -0.83147
vn -0.00000 -0.70711 -0.70711
vn -0.00000 -0.83147 -0.55557
vn -0.00000 -0.92388 -0.38268
vn -0.00000 -0.98079 -0.19509
vn -0.00000 -1.00000 0.00000
vn -0.00000 -0.98079 0.19509
vn -0.00000 -0.92388 0.38268
vn -0.00000 -0.83147 0.55557
vn -0.00000 -0.70711 0.70711
vn -0.00000 -0.55557 0.83147
vn -0.00000 -0.38268 0.92388
vn -0.00000 -0.19509 0.98079
vn -0.00000 -0.00000 1.00000
vn 0.00000 -0.00000 -1.00000
vn 0.07466 -0.18024 -0.98079
vn 0.14645 -0.35355 -0.92388
vn 0.21261 -0.51328 -0.83147
vn 0.27060 -0.65328 -0.70711
vn 0.31819 -0.76818 -0.55557
vn 0.35355 -0.85355 -0.38268
vn 0.37533 -0.90613 -0.19509
vn 0.38268 -0.92388 0.00000
vn 0.37533 -0.90613 0.19509
vn 0.35355 -0.85355 0.38268
vn 0.31819 -0.76818 0.55557
vn 0.27060 -0.65328 0.70711
vn 0.21261 -0.51328 0.83147
vn 0.14645 -0.35355 0.92388
vn 0.07466 -0.18024 0.98079
vn 0.00000 -0.00000 1.00000
vn 0.00000 -0.00000 -1.00000
vn 0.13795 -0.13795 -0.98079
vn 0.27060 -0.27060 -0.92388
vn 0.39285 -0.39285 -0.83147
vn 0.50000 -0.50000 -0.70711
vn 0.58794 -0.58794 -0.55557
vn 0.65328 -0.65328 -0.38268
vn 0.69352 -0.69352 -0.19509
vn 0.70711 -0.70711 0.00000
vn 0.69352 -0.69352 0.19509
vn 0.65328 -0.65328 0.38268
vn 0.58794 -0.58794 0.55557
vn 0.50000 -0.50000 0.70711
vn 0.39285 -0.39285 0.83147
vn 0.27060 -0.27060 0.92388
vn 0.13795 -0.13795 0.98079
vn 0.00000 -0.00000 1.00000
vn 0.00000 -0.00000 -1.00000
vn 0.18024 -0.07466 -0.98079
vn 0.35355 -0.14645 -0.92388
vn 0.51328 -0.21261 -0.83147
vn 0.65328 -0.27060 -0.70711
vn 0.76818 -0.31819 -0.55557
vn 0.85355 -0.35355 -0.38268
vn 0.90613 -0.37533 -0.19509
vn 0.92388 -0.38268 0.00000
vn 0.90613 -0.37533 0.19509
vn 0.85355 -0.35355 0.38268
vn 0.76818 -0.31819 0.55557
vn 0.65328 -0.27060 0.70711
vn 0.51328 -0.21261 0.83147
vn 0.35355 -0.14645 0.92388
vn 0.18024 -0.07466 0.98079
vn 0.00000 -0.00000 1.00000
vn 0.00000 -0.00000 -1.00000
vn 0.19509 -0.00000 -0.98079
vn 0.38268 -0.00000 -0.92388
vn 0.55557 -0.00000 -0.83147
vn 0.70711 -0.00000 -0.70711
vn 0.83147 -0.00000 -0.55557
vn 0.92388 -0.00000 -0.38268
vn 0.98079 -0.00000 -0.19509
vn 1.00000 -0.00000 0.00000
vn 0.98079 -0.00000 0.19509
vn 0.92388 -0.00000 0.38268
vn 0.83147 -0.00000 0.55557
vn 0.70711 -0.00000 0.70711
vn 0.55557 -0.00000 0.83147
vn 0.38268 -0.00000 0.92388
vn 0.19509 -0.00000 0.98079
vn 0.00000 -0.00000 1.00000

# mesh-6: faces
usemtl MATERIAL6
f 505/505/505 522/522/522 523/523/523
f 505/505/505 523/523/523 506/506/506
f 506/506/506 523/523/523 524/524/524
f 506/506/506 524/524/524 507/507/507
f 507/507/507 524/524/524 525/525/525
f 507/507/507 525/525/525 508/508/508
f 508/508/508 525/525/525 526/526/526
f 508/508/508 526/526/526 509/509/509
f 509/509/509 526/526/526 527/527/527
f 509/509/509 527/527/527 510/510/510
f 510/510/510 527/527/527 528/528/528
f 510/510/510 528/528/528 511/511/511
f 511/511/511 528/528/528 529/529/529
f 511/511/511 529/529/529 512/512/512
f 512/512/512 529/529/529 530/530/530
f 512/512/512 530/530/530 513/513/513
f 513/513/513 530/530/530 531/531/531
f 513/513/513 531/531/531 514/514/514
f 514/514/514 531/531/531 532/532/532
f 514/514/514 532/532/532 515/515/515
f 515/515/515 532/532/532 533/533/533
f 515/515/515 533/533/533 516/516/516
f 516/516/516 533/533/533 534/534/534
f 516/516/516 534/534/534 517/517/517
f 517/517/517 534/534/534 535/535/535
f 517/517/517 535/535/535 518/518/518
f 518/518/518 535/535/535 536/536/536
f 518/518/518 536/536/536 519/519/519
f 519/519/519 536/536/536 537/537/537
f 519/519/519 537/537/537 520/520/520
f 520/520/520 537/537/537 538/538/538
f 520/520/520 538/538/538 521/521/521
f 522/522/522 539/539/539 540/540/540
f 522/522/522 540/540/540 523/523/523
f 523/523/523 540/540/540 541/541/541
f 523/523/523 541/541/541 524/524/524
f 524/524/524 541/541/541 542/542/542
f 524/524/524 542/542/542 525/525/525
f 525/525/525 542/542/542 543/543/543
f 525/525/525 543/543/543 526/526/526
f 526/526/526 543/543/543 544/544/544
f 526/526/526 544/544/544 527/527/527
f 527/527/527 544/544/544 545/545/545
f 527/527/527 545/545/545 528/528/528
f 528/528/528 545/545/545 546/546/546
f 528/528/528 546/546/546 529/529/529
f 529/529/529 546/546/546 547/547/547
f 529/529/529 547/547/547 530/530/530
f 530/530/530 547/547/547 548/548/548
f 530/530/530 548/548/548 531/531/531
f 531/531/531 548/548/548 549/549/549
f 531/531/531 549/549/549 532/532/532
f 532/532/532 549/549/549 550/550/550
f 532/532/532 550/550/550 533/533/533
f 533/533/533 550/550/550 551/551/551
f 533/533/533 551/551/551 534/534/534
f 534/534/534 551/551/551 552/552/552
f 534/534/534 552/552/552 535/535/535
f 535/535/535 552/552/552 553/553/553
f 535/535/535 553/553/553 536/536/536
f 536/536/536 553/553/553 554/554/554
f 536/536/536 554/554/554 537/537/537
f 537/537/537 554/554/554 555/555/555
f 537/537/537 555/555/555 538/538/538
f 539/539/539 556/556/556 557/557/557
f 539/539/539 557/557/557 540/540/540
f 540/540/540 557/557/557 558/558/558
f 540/540/540 558/558/558 541/541/541
f 541/541/541 558/558/558 559/559/559
f 541/541/541 559/559/559 542/542/542
f 542/542/542 559/559/559 560/560/560
f 542/542/542 560/560/560 543/543/543
f 543/543/543 560/560/560 561/561/561
f 543/543/543 561/561/561 544/544/544
f 544/544/544 561/561/561 562/562/562
f 544/544/544 562/562/562 545/545/545
f 545/545/545 562/562/562 563/563/563
f 545/545/545 563/563/563 546/546/546
f 546/546/546 563/563/563 564/564/564
f 546/546/546 564/564/564 547/547/547
f 547/547/547 564/564/564 565/565/565
f 547/547/547 565/565/565 548/548/548
f 548/548/548 565/565/565 566/566/566
f 548/548/548 566/566/566 549/549/549
f 549/549/549 566/566/566 567/567/567
f 549/549/549 567/567/567 550/550/550
f 550/550/550 567/567/567 568/568/568
f 550/550/550 568/568/568 551/551/551
f 551/551/551 568/568/568 569/569/569
f 551/551/551 569/569/569 552/552/552
f 552/552/552 569/569/569 570/570/570
f 552/552/552 570/570/570 553/553/553
f 553/553/553 570/570/570 571/571/571
f 553/553/553 571/571/571 554/554/554
f 554/554/554 571/571/571 572/572/572
f 554/554/554 572/572/572 555/555/555
f 556/556/556 573/573/573 574/574/574
f 556/556/556 574/574/574 557/557/557
f 557/557/557 574/574/574 575/575/575
f 557/557/557 575/575/575 558/558/558
f 558/558/558 575/575/575 576/576/576
f 558/558/558 576/576/576 559/559/559
f 559/559/559 576/576/576 577/577/577
f 559/559/559 577/577/577 560/560/560
f 560/560/560 577/577/577 578/578/578
f 560/560/560 578/578/578 561/561/561
f 561/561/561 578/578/578 579/579/579
f 561/561/561 579/579/579 562/562/562
f 562/562/562 579/579/579 580/580/580
f 562/562/562 580/580/580 563/563/563
f 563/563/563 580/580/580 581/581/581
f 563/563/563 581/581/581 564/564/564
f 564/564/564 581/581/581 582/582/582
f 564/564/564 582/582/582 565/565/565
f 565/565/565 582/582/582 583/583/583
f 565/565/565 583/583/583 566/566/566
f 566/566/566 583/583/583 584/584/584
f 566/566/566 584/584/584 567/567/567
f 567/567/567 584/584/584 585/585/585
f 567/567/567 585/585/585 568/568/568
f 568/568/568 585/585/585 586/586/586
f 568/568/568 586/586/586 569/569/569
f 569/569/569 586/586/586 587/587/587
f 569/569/569 587/587/587 570/570/570
f 570/570/570 587/587/587 588/588/588
f 570/570/570 588/588/588 571/571/571
f 571/571/571 588/588/588 589/589/589
f 571/571/571 589/589/589 572/572/572
f 573/573/573 590/590/590 591/591/591
f 573/573/573 591/591/591 574/574/574
f 574/574/574 591/591/591 592/592/592
f 574/574/574 592/592/592 575/575/575
f 575/575/575 592/592/592 593/593/593
f 575/575/575 593/593/593 576/576/576
f 576/576/576 593/593/593 594/594/594
f 576/576/576 594/594/594 577/577/577
f 577/577/577 594/594/594 595/595/595
f 577/577/577 595/595/595 578/578/578
f 578/578/578 595/595/595 596/596/596
f 578/578/578 596/596/596 579/579/579
f 579/579/579 596/596/596 597/597/597
f 579/579/579 597/597/597 580/580/580
f 580/580/580 597/597/597 598/598/598
f 580/580/580 598/598/598 581/581/581
f 581/581/581 598/598/598 599/599/599
f 581/581/581 599/599/599 582/582/582
f 582/582/582 599/599/599 600/600/600
f 582/582/582 600/600/600 583/583/583
f 583/583/583 600/600/600 601/601/601
f 583/583/583 601/601/601 584/584/584
f 584/584/584 601/601/601 602/602/602
f 584/584/584 602/602/602 585/585/585
f 585/585/585 602/602/602 603/603/603
f 585/585/585 603/603/603 586/586/586
f 586/586/586 603/603/603 604/604/604
f 586/586/586 604/604/604 587/587/587
f 587/587/587 604/604/604 605/605/605
f 587/587/587 605/605/605 588/588/588
f 588/588/588 605/605/605 606/606/606
f 588/588/588 606/606/606 589/589/589
f 590/590/590 607/607/607 608/608/608
f 590/590/590 608/608/608 591/591/591
f 591/591/591 608/608/608 609/609/609
f 591/591/591 609/609/609 592/592/592
f 592/592/592 609/609/609 610/610/610
f 592/592/592 610/610/610 593/593/593
f 593/593/593 610/610/610 611/611/611
f 593/593/593 611/611/611 594/594/594
f 594/594/594 611/611/611 612/612/612
f 594/594/594 612/612/612 595/595/595
f 595/595/595 612/612/612 613/613/613
f 595/595/595 613/613/613 596/596/596
f 596/596/596 613/613/613 614/614/614
f 596/596/596 614/614/614 597/597/597
f 597/597/597 614/614/614 615/615/615
f 597/597/597 615/615/615 598/598/598
f 598/598/598 615/615/615 616/616/616
f 598/598/598 616/616/616 599/599/599
f 599/599/599 616/616/616 617/617/617
f 599/599/599 617/617/617 600/600/600
f 600/600/600 617/617/617 618/618/618
f 600/600/600 618/618/618 601/601/601
f 601/601/601 618/618/618 619/619/619
f 601/601/601 619/619/619 602/602/602
f 602/602/602 619/619/619 620/620/620
f 602/602/602 620/620/620 603/603/603
f 603/603/603 620/620/620 621/621/621
f 603/603/603 621/621/621 604/604/604
f 604/604/604 621/621/621 622/622/622
f 604/604/604 622/622/622 605/605/605
f 605/605/605 622/622/622 623/623/623
f 605/605/605 623/623/623 606/606/606
f 607/607/607 624/624/624 625/625/625
f 607/607/607 625/625/625 608/608/608
f 608/608/608 625/625/625 626/626/626
f 608/608/608 626/626/626 609/609/609
f 609/609/609 626/626/626 627/627/627
f 609/609/609 627/627/627 610/610/610
f 610/610/610 627/627/627 628/628/628
f 610/610/610 628/628/628 611/611/611
f 611/611/611 628/628/628 629/629/629
f 611/611/611 629/629/629 612/612/612
f 612/612/612 629/629/629 630/630/630
f 612/612/612 630/630/630 613/613/613
f 613/613/613 630/630/630 631/631/631
f 613/613/613 631/631/631 614/614/614
f 614/614/614 631/631/631 632/632/632
f 614/614/614 632/632/632 615/615/615
f 615/615/615 632/632/632 633/633/633
f 615/615/615 633/633/633 616/616/616
f 616/616/616 633/633/633 634/634/634
f 616/616/616 634/634/634 617/617/617
f 617/617/617 634/634/634 635/635/635
f 617/617/617 635/635/635 618/618/618
f 618/618/618 635/635/635 636/636/636
f 618/618/618 636/636/636 619/619/619
f 619/619/619 636/636/636 637/637/637
f 619/619/619 637/637/637 620/620/620
f 620/620/620 637/637/637 638/638/638
f 620/620/620 638/638/638 621/621/621
f 621/621/621 638/638/638 639/639/639
f 621/621/621 639/639/639 622/622/622
f 622/622/622 639/639/639 640/640/640
f 622/622/622 640/640/640 623/623/623
f 624/624/624 641/641/641 642/642/642
f 624/624/624 642/642/642 625/625/625
f 625/625/625 642/642/642 643/643/643
f 625/625/625 643/643/643 626/626/626
f 626/626/626 643/643/643 644/644/644
f 626/626/626 644/644/644 627/627/627
f 627/627/627 644/644/644 645/645/645
f 627/627/627 645/645/645 628/628/628
f 628/628/628 645/645/645 646/646/646
f 628/628/628 646/646/646 629/629/629
f 629/629/629 646/646/646 647/647/647
f 629/629/629 647/647/647 630/630/630
f 630/630/630 647/647/647 648/648/648
f 630/630/630 648/648/648 631/631/631
f 631/631/631 648/648/648 649/649/649
f 631/631/631 649/649/649 632/632/632
f 632/632/632 649/649/649 650/650/650
f 632/632/632 650/650/650 633/633/633
f 633/633/633 650/650/650 651/651/651
f 633/633/633 651/651/651 634/634/634
f 634/634/634 651/651/651 652/652/652
f 634/634/634 652/652/652 635/635/635
f 635/635/635 652/652/652 653/653/653
f 635/635/635 653/653/653 636/636/636
f 636/636/636 653/653/653 654/654/654
f 636/636/636 654/654/654 637/637/637
f 637/637/637 654/654/654 655/655/655
f 637/637/637 655/655/655 638/638/638
f 638/638/638 655/655/655 656/656/656
f 638/638/638 656/656/656 639/639/639
f 639/639/639 656/656/656 657/657/657
f 639/639/639 657/657/657 640/640/640
f 641/641/641 658/658/658 659/659/659
f 641/641/641 659/659/659 642/642/642
f 642/642/642 659/659/659 660/660/660
f 642/642/642 660/660/660 643/643/643
f 643/643/643 660/660/660 661/661/661
f 643/643/643 661/661/661 644/644/644
f 644/644/644 661/661/661 662/662/662
f 644/644/644 662/662/662 645/645/645
f 645/645/645 662/662/662 663/663/663
f 645/645/645 663/663/663 646/646/646
f 646/646/646 663/663/663 664/664/664
f 646/646/646 664/664/664 647/647/647
f 647/647/647 664/664/664 665/665/665
f 647/647/647 665/665/665 648/648/648
f 648/648/648 665/665/665 666/666/666
f 648/648/648 666/666/666 649/649/649
f 649/649/649 666/666/666 667/667/667
f 649/649/649 667/667/667 650/650/650
f 650/650/650 667/667/667 668/668/668
f 650/650/650 668/668/668 651/651/651
f 651/651/651 668/668/668 669/669/669
f 651/651/651 669/669/669 652/652/652
f 652/652/652 669/669/669 670/670/670
f 652/652/652 670/670/670 653/653/653
f 653/653/653 670/670/670 671/671/671
f 653/653/653 671/671/671 654/654/654
f 654/654/654 671/671/671 672/672/672
f 654/654/654 672/672/672 655/655/655
f 655/655/655 672/672/672 673/673/673
f 655/655/655 673/673/673 656/656/656
f 656/656/656 673/673/673 674/674/674
f 656/656/656 674/674/674 657/657/657
f 658/658/658 675/675/675 676/676/676
f 658/658/658 676/676/676 659/659/659
f 659/659/659 676/676/676 677/677/677
f 659/659/659 677/677/677 660/660/660
f 660/660/660 677/677/677 678/678/678
f 660/660/660 678/678/678 661/661/661
f 661/661/661 678/678/678 679/679/679
f 661/661/661 679/679/679 662/662/662
f 662/662/662 679/679/679 680/680/680
f 662/662/662 680/680/680 663/663/663
f 663/663/663 680/680/680 681/681/681
f 663/663/663 681/681/681 664/664/664
f 664/664/664 681/681/681 682/682/682
f 664/664/664 682/682/682 665/665/665
f 665/665/665 682/682/682 683/683/683
f 665/665/665 683/683/683 666/666/666
f 666/666/666 683/683/683 684/684/684
f 666/666/666 684/684/684 667/667/667
f 667/667/667 684/684/684 685/685/685
f 667/667/667 685/685/685 668/668/668
f 668/668/668 685/685/685 686/686/686
f 668/668/668 686/686/686 669/669/669
f 669/669/669 686/686/686 687/687/687
f 669/669/669 687/687/687 670/670/670
f 670/670/670 687/687/687 688/688/688
f 670/670/670 688/688/688 671/671/671
f 671/671/671 688/688/688 689/689/689
f 671/671/671 689/689/689 672/672/672
f 672/672/672 689/689/689 690/690/690
f 672/672/672 690/690/690 673/673/673
f 673/673/673 690/690/690 691/691/691
f 673/673/673 691/691/691 674/674/674
f 675/675/675 692/692/692 693/693/693
f 675/675/675 693/693/693 676/676/676
f 676/676/676 693/693/693 694/694/694
f 676/676/676 694/694/694 677/677/677
f 677/677/677 694/694/694 695/695/695
f 677/677/677 695/695/695 678/678/678
f 678/678/678 695/695/695 696/696/696
f 678/678/678 696/696/696 679/679/679
f 679/679/679 696/696/696 697/697/697
f 679/679/679 697/697/697 680/680/680
f 680/680/680 697/697/697 698/698/698
f 680/680/680 698/698/698 681/681/681
f 681/681/681 698/698/698 699/699/699
f 681/681/681 699/699/699 682/682/682
f 682/682/682 699/699/699 700/700/700
f 682/682/682 700/700/700 683/683/683
f 683/683/683 700/700/700 701/701/701
f 683/683/683 701/701/701 684/684/684
f 684/684/684 701/701/701 702/702/702
f 684/684/684 702/702/702 685/685/685
f 685/685/685 702/702/702 703/703/703
f 685/685/685 703/703/703 686/686/686
f 686/686/686 703/703/703 704/704/704
f 686/686/686 704/704/704 687/687/687
f 687/687/687 704/704/704 705/705/705
f 687/687/687 705/705/705 688/688/688
f 688/688/688 705/705/705 706/706/706
f 688/688/688 706/706/706 689/689/689
f 689/689/689 706/706/706 707/707/707
f 689/689/689 707/707/707 690/690/690
f 690/690/690 707/707/707 708/708/708
f 690/690/690 708/708/708 691/691/691
f 692/692/692 709/709/709 710/710/710
f 692/692/692 710/710/710 693/693/693
f 693/693/693 710/710/710 711/711/711
f 693/693/693 711/711/711 694/694/694
f 694/694/694 711/711/711 712/712/712
f 694/694/694 712/712/712 695/695/695
f 695/695/695 712/712/712 713/713/713
f 695/695/695 713/713/713 696/696/696
f 696/696/696 713/713/713 714/714/714
f 696/696/696 714/714/714 697/697/697
f 697/697/697 714/714/714 715/715/715
f 697/697/697 715/715/715 698/698/698
f 698/698/698 715/715/715 716/716/716
f 698/698/698 716/716/716 699/699/699
f 699/699/699 716/716/716 717/717/717
f 699/699/699 717/717/717 700/700/700
f 700/700/700 717/717/717 718/718/718
f 700/700/700 718/718/718 701/701/701
f 701/701/701 718/718/718 719/719/719
f 701/701/701 719/719/719 702/702/702
f 702/702/702 719/719/719 720/720/720
f 702/702/702 720/720/720 703/703/703
f 703/703/703 720/720/720 721/721/721
f 703/703/703 721/721/721 704/704/704
f 704/704/704 721/721/721 722/722/722
f 704/704/704 722/722/722 705/705/705
f 705/705/705 722/722/722 723/723/723
f 705/705/705 723/723/723 706/706/706
f 706/706/706 723/723/723 724/724/724
f 706/706/706 724/724/724 707/707/707
f 707/707/707 724/724/724 725/725/725
f 707/707/707 725/725/725 708/708/708
f 709/709/709 726/726/726 727/727/727
f 709/709/709 727/727/727 710/710/710
f 710/710/710 727/727/727 728/728/728
f 710/710/710 728/728/728 711/711/711
f 711/711/711 728/728/728 729/729/729
f 711/711/711 729/729/729 712/712/712
f 712/712/712 729/729/729 730/730/730
f 712/712/712 730/730/730 713/713/713
f 713/713/713 730/730/730 731/731/731
f 713/713/713 731/731/731 714/714/714
f 714/714/714 731/731/731 732/732/732
f 714/714/714 732/732/732 715/715/715
f 715/715/715 732/732/732 733/733/733
f 715/715/715 733/733/733 716/716/716
f 716/716/716 733/733/733 734/734/734
f 716/716/716 734/734/734 717/717/717
f 717/717/717 734/734/734 735/735/735
f 717/717/717 735/735/735 718/718/718
f 718/718/718 735/735/735 736/736/736
f 718/718/718 736/736/736 719/719/719
f 719/719/719 736/736/736 737/737/737
f 719/719/719 737/737/737 720/720/720
f 720/720/720 737/737/737 738/738/738
f 720/720/720 738/738/738 721/721/721
f 721/721/721 738/738/738 739/739/739
f 721/721/721 739/739/739 722/722/722
f 722/722/722 739/739/739 740/740/740
f 722/722/722 740/740/740 723/723/723
f 723/723/723 740/740/740 741/741/741
f 723/723/723 741/741/741 724/724/724
f 724/724/724 741/741/741 742/742/742
f 724/724/724 742/742/742 725/725/725
f 726/726/726 743/743/743 744/744/744
f 726/726/726 744/744/744 727/727/727
f 727/727/727 744/744/744 745/745/745
f 727/727/727 745/745/745 728/728/728
f 728/728/728 745/745/745 746/746/746
f 728/728/728 746/746/746 729/729/729
f 729/729/729 746/746/746 747/747/747
f 729/729/729 747/747/747 730/730/730
f 730/730/730 747/747/747 748/748/748
f 730/730/730 748/748/748 731/731/731
f 731/731/731 748/748/748 749/749/749
f 731/731/731 749/749/749 732/732/732
f 732/732/732 749/749/749 750/750/750
f 732/732/732 750/750/750 733/733/733
f 733/733/733 750/750/750 751/751/751
f 733/733/733 751/751/751 734/734/734
f 734/734/734 751/751/751 752/752/752
f 734/734/734 752/752/752 735/735/735
f 735/735/735 752/752/752 753/753/753
f 735/735/735 753/753/753 736/736/736
f 736/736/736 753/753/753 754/754/754
f 736/736/736 754/754/754 737/737/737
f 737/737/737 754/754/754 755/755/755
f 737/737/737 755/755/755 738/738/738
f 738/738/738 755/755/755 756/756/756
f 738/738/738 756/756/756 739/739/739
f 739/739/739 756/756/756 757/757/757
f 739/739/739 757/757/757 740/740/740
f 740/740/740 757/757/757 758/758/758
f 740/740/740 758/758/758 741/741/741
f 741/741/741 758/758/758 759/759/759
f 741/741/741 759/759/759 742/742/742
f 743/743/743 760/760/760 761/761/761
f 743/743/743 761/761/761 744/744/744
f 744/744/744 761/761/761 762/762/762
f 744/744/744 762/762/762 745/745/745
f 745/745/745 762/762/762 763/763/763
f 745/745/745 763/763/763 746/746/746
f 746/746/746 763/763/763 764/764/764
f 746/746/746 764/764/764 747/747/747
f 747/747/747 764/764/764 765/765/765
f 747/747/747 765/765/765 748/748/748
f 748/748/748 765/765/765 766/766/766
f 748/748/748 766/766/766 749/749/749
f 749/749/749 766/766/766 767/767/767
f 749/749/749 767/767/767 750/750/750
f 750/750/750 767/767/767 768/768/768
f 750/750/750 768/768/768 751/751/751
f 751/751/751 768/768/768 769/769/769
f 751/751/751 769/769/769 752/752/752
f 752/752/752 769/769/769 770/770/770
f 752/752/752 770/770/770 753/753/753
f 753/753/753 770/770/770 771/771/771
f 753/753/753 771/771/771 754/754/754
f 754/754/754 771/771/771 772/772/772
f 754/754/754 772/772/772 755/755/755
f 755/755/755 772/772/772 773/773/773
f 755/755/755 773/773/773 756/756/756
f 756/756/756 773/773/773 774/774/774
f 756/756/756 774/774/774 757/757/757
f 757/757/757 774/774/774 775/775/775
f 757/757/757 775/775/775 758/758/758
f 758/758/758 775/775/775 776/776/776
f 758/758/758 776/776/776 759/759/759
f 760/760/760 777/777/777 778/778/778
f 760/760/760 778/778/778 761/761/761
f 761/761/761 778/778/778 779/779/779
f 761/761/761 779/779/779 762/762/762
f 762/762/762 779/779/779 780/780/780
f 762/762/762 780/780/780 763/763/763
f 763/763/763 780/780/780 781/781/781
f 763/763/763 781/781/781 764/764/764
f 764/764/764 781/781/781 782/782/782
f 764/764/764 782/782/782 765/765/765
f 765/765/765 782/782/782 783/783/783
f 765/765/765 783/783/783 766/766/766
f 766/766/766 783/783/783 784/784/784
f 766/766/766 784/784/784 767/767/767
f 767/767/767 784/784/784 785/785/785
f 767/767/767 785/785/785 768/768/768
f 768/768/768 785/785/785 786/786/786
f 768/768/768 786/786/786 769/769/769
f 769/769/769 786/786/786 787/787/787
f 769/769/769 787/787/787 770/770/770
f 770/770/770 787/787/787 788/788/788
f 770/770/770 788/788/788 771/771/771
f 771/771/771 788/788/788 789/789/789
f 771/771/771 789/789/789 772/772/772
f 772/772/772 789/789/789 790/790/790
f 772/772/772 790/790/790 773/773/773
f 773/773/773 790/790/790 791/791/791
f 773/773/773 791/791/791 774/774/774
f 774/774/774 791/791/791 792/792/792
f 774/774/774 792/792/792 775/775/775
f 775/775/775 792/792/792 793/793/793
f 775/775/775 793/793/793 776/776/776

